<?xml version="1.0" encoding="UTF-8" standalone="no"?><svg xmlns="http://www.w3.org/2000/svg" xmlns:xlink="http://www.w3.org/1999/xlink" contentScriptType="application/ecmascript" contentStyleType="text/css" height="802px" preserveAspectRatio="none" style="width:413px;height:802px;" version="1.1" viewBox="0 0 413 802" width="413px" zoomAndPan="magnify"><defs><filter height="300%" id="f3j8j69pg7uby" width="300%" x="-1" y="-1"><feGaussianBlur result="blurOut" stdDeviation="2.0"/><feColorMatrix in="blurOut" result="blurOut2" type="matrix" values="0 0 0 0 0 0 0 0 0 0 0 0 0 0 0 0 0 0 .4 0"/><feOffset dx="4.0" dy="4.0" in="blurOut2" result="blurOut3"/><feBlend in="SourceGraphic" in2="blurOut3" mode="normal"/></filter></defs><g><!--class TripDto--><rect fill="#FEFECE" filter="url(#f3j8j69pg7uby)" height="99.2188" id="TripDto" style="stroke: #A80036; stroke-width: 1.5;" width="171" x="47.5" y="155"/><ellipse cx="106.25" cy="171" fill="#ADD1B2" rx="11" ry="11" style="stroke: #A80036; stroke-width: 1.0;"/><path d="M109.2188,176.6406 Q108.6406,176.9375 108,177.0781 Q107.3594,177.2344 106.6563,177.2344 Q104.1563,177.2344 102.8281,175.5938 Q101.5156,173.9375 101.5156,170.8125 Q101.5156,167.6875 102.8281,166.0313 Q104.1563,164.375 106.6563,164.375 Q107.3594,164.375 108,164.5313 Q108.6563,164.6875 109.2188,164.9844 L109.2188,167.7031 Q108.5938,167.125 108,166.8594 Q107.4063,166.5781 106.7813,166.5781 Q105.4375,166.5781 104.75,167.6563 Q104.0625,168.7188 104.0625,170.8125 Q104.0625,172.9063 104.75,173.9844 Q105.4375,175.0469 106.7813,175.0469 Q107.4063,175.0469 108,174.7813 Q108.5938,174.5 109.2188,173.9219 L109.2188,176.6406 Z "/><text fill="#000000" font-family="sans-serif" font-size="12" lengthAdjust="spacingAndGlyphs" textLength="45" x="126.75" y="175.1543">TripDto</text><line style="stroke: #A80036; stroke-width: 1.5;" x1="48.5" x2="217.5" y1="187" y2="187"/><ellipse cx="58.5" cy="198" fill="none" rx="3" ry="3" style="stroke: #038048; stroke-width: 1.0;"/><text fill="#000000" font-family="sans-serif" font-size="11" lengthAdjust="spacingAndGlyphs" textLength="145" x="67.5" y="201.2104">tickets: Array&lt;TicketDto&gt;</text><ellipse cx="58.5" cy="210.8047" fill="none" rx="3" ry="3" style="stroke: #038048; stroke-width: 1.0;"/><text fill="#000000" font-family="sans-serif" font-size="11" lengthAdjust="spacingAndGlyphs" textLength="116" x="67.5" y="214.0151">departureDate: Date</text><ellipse cx="58.5" cy="223.6094" fill="none" rx="3" ry="3" style="stroke: #038048; stroke-width: 1.0;"/><text fill="#000000" font-family="sans-serif" font-size="11" lengthAdjust="spacingAndGlyphs" textLength="96" x="67.5" y="226.8198">arrivalDate: Date</text><ellipse cx="58.5" cy="236.4141" fill="none" rx="3" ry="3" style="stroke: #038048; stroke-width: 1.0;"/><text fill="#000000" font-family="sans-serif" font-size="11" lengthAdjust="spacingAndGlyphs" textLength="89" x="67.5" y="239.6245">totalPrice: Price</text><line style="stroke: #A80036; stroke-width: 1.5;" x1="48.5" x2="217.5" y1="246.2188" y2="246.2188"/><!--class TicketDto--><rect fill="#FEFECE" filter="url(#f3j8j69pg7uby)" height="99.2188" id="TicketDto" style="stroke: #A80036; stroke-width: 1.5;" width="142" x="62" y="327"/><ellipse cx="99.95" cy="343" fill="#ADD1B2" rx="11" ry="11" style="stroke: #A80036; stroke-width: 1.0;"/><path d="M102.9188,348.6406 Q102.3406,348.9375 101.7,349.0781 Q101.0594,349.2344 100.3563,349.2344 Q97.8563,349.2344 96.5281,347.5938 Q95.2156,345.9375 95.2156,342.8125 Q95.2156,339.6875 96.5281,338.0313 Q97.8563,336.375 100.3563,336.375 Q101.0594,336.375 101.7,336.5313 Q102.3563,336.6875 102.9188,336.9844 L102.9188,339.7031 Q102.2938,339.125 101.7,338.8594 Q101.1063,338.5781 100.4813,338.5781 Q99.1375,338.5781 98.45,339.6563 Q97.7625,340.7188 97.7625,342.8125 Q97.7625,344.9063 98.45,345.9844 Q99.1375,347.0469 100.4813,347.0469 Q101.1063,347.0469 101.7,346.7813 Q102.2938,346.5 102.9188,345.9219 L102.9188,348.6406 Z "/><text fill="#000000" font-family="sans-serif" font-size="12" lengthAdjust="spacingAndGlyphs" textLength="59" x="119.05" y="347.1543">TicketDto</text><line style="stroke: #A80036; stroke-width: 1.5;" x1="63" x2="203" y1="359" y2="359"/><ellipse cx="73" cy="370" fill="none" rx="3" ry="3" style="stroke: #038048; stroke-width: 1.0;"/><text fill="#000000" font-family="sans-serif" font-size="11" lengthAdjust="spacingAndGlyphs" textLength="85" x="82" y="373.2104">flight: FlightDto</text><ellipse cx="73" cy="382.8047" fill="none" rx="3" ry="3" style="stroke: #038048; stroke-width: 1.0;"/><text fill="#000000" font-family="sans-serif" font-size="11" lengthAdjust="spacingAndGlyphs" textLength="116" x="82" y="386.0151">departureDate: Date</text><ellipse cx="73" cy="395.6094" fill="none" rx="3" ry="3" style="stroke: #038048; stroke-width: 1.0;"/><text fill="#000000" font-family="sans-serif" font-size="11" lengthAdjust="spacingAndGlyphs" textLength="96" x="82" y="398.8198">arrivalDate: Date</text><ellipse cx="73" cy="408.4141" fill="none" rx="3" ry="3" style="stroke: #038048; stroke-width: 1.0;"/><text fill="#000000" font-family="sans-serif" font-size="11" lengthAdjust="spacingAndGlyphs" textLength="105" x="82" y="411.6245">totalPrice: number</text><line style="stroke: #A80036; stroke-width: 1.5;" x1="63" x2="203" y1="418.2188" y2="418.2188"/><!--class FlightDto--><rect fill="#FEFECE" filter="url(#f3j8j69pg7uby)" height="99.2188" id="FlightDto" style="stroke: #A80036; stroke-width: 1.5;" width="147" x="59.5" y="486"/><ellipse cx="101.05" cy="502" fill="#ADD1B2" rx="11" ry="11" style="stroke: #A80036; stroke-width: 1.0;"/><path d="M104.0188,507.6406 Q103.4406,507.9375 102.8,508.0781 Q102.1594,508.2344 101.4563,508.2344 Q98.9563,508.2344 97.6281,506.5938 Q96.3156,504.9375 96.3156,501.8125 Q96.3156,498.6875 97.6281,497.0313 Q98.9563,495.375 101.4563,495.375 Q102.1594,495.375 102.8,495.5313 Q103.4563,495.6875 104.0188,495.9844 L104.0188,498.7031 Q103.3938,498.125 102.8,497.8594 Q102.2063,497.5781 101.5813,497.5781 Q100.2375,497.5781 99.55,498.6563 Q98.8625,499.7188 98.8625,501.8125 Q98.8625,503.9063 99.55,504.9844 Q100.2375,506.0469 101.5813,506.0469 Q102.2063,506.0469 102.8,505.7813 Q103.3938,505.5 104.0188,504.9219 L104.0188,507.6406 Z "/><text fill="#000000" font-family="sans-serif" font-size="12" lengthAdjust="spacingAndGlyphs" textLength="56" x="120.95" y="506.1543">FlightDto</text><line style="stroke: #A80036; stroke-width: 1.5;" x1="60.5" x2="205.5" y1="518" y2="518"/><ellipse cx="70.5" cy="529" fill="none" rx="3" ry="3" style="stroke: #038048; stroke-width: 1.0;"/><text fill="#000000" font-family="sans-serif" font-size="11" lengthAdjust="spacingAndGlyphs" textLength="60" x="79.5" y="532.2104">flightId: int</text><ellipse cx="70.5" cy="541.8047" fill="none" rx="3" ry="3" style="stroke: #038048; stroke-width: 1.0;"/><text fill="#000000" font-family="sans-serif" font-size="11" lengthAdjust="spacingAndGlyphs" textLength="97" x="79.5" y="545.0151">airline: AirlineDto</text><ellipse cx="70.5" cy="554.6094" fill="none" rx="3" ry="3" style="stroke: #038048; stroke-width: 1.0;"/><text fill="#000000" font-family="sans-serif" font-size="11" lengthAdjust="spacingAndGlyphs" textLength="121" x="79.5" y="557.8198">srcAirport: AirportDto</text><ellipse cx="70.5" cy="567.4141" fill="none" rx="3" ry="3" style="stroke: #038048; stroke-width: 1.0;"/><text fill="#000000" font-family="sans-serif" font-size="11" lengthAdjust="spacingAndGlyphs" textLength="121" x="79.5" y="570.6245">dstAirport: AirportDto</text><line style="stroke: #A80036; stroke-width: 1.5;" x1="60.5" x2="205.5" y1="577.2188" y2="577.2188"/><!--class AirlineDto--><rect fill="#FEFECE" filter="url(#f3j8j69pg7uby)" height="73.6094" id="AirlineDto" style="stroke: #A80036; stroke-width: 1.5;" width="100" x="6" y="681"/><ellipse cx="24.6" cy="697" fill="#ADD1B2" rx="11" ry="11" style="stroke: #A80036; stroke-width: 1.0;"/><path d="M27.5688,702.6406 Q26.9906,702.9375 26.35,703.0781 Q25.7094,703.2344 25.0063,703.2344 Q22.5063,703.2344 21.1781,701.5938 Q19.8656,699.9375 19.8656,696.8125 Q19.8656,693.6875 21.1781,692.0313 Q22.5063,690.375 25.0063,690.375 Q25.7094,690.375 26.35,690.5313 Q27.0063,690.6875 27.5688,690.9844 L27.5688,693.7031 Q26.9438,693.125 26.35,692.8594 Q25.7563,692.5781 25.1313,692.5781 Q23.7875,692.5781 23.1,693.6563 Q22.4125,694.7188 22.4125,696.8125 Q22.4125,698.9063 23.1,699.9844 Q23.7875,701.0469 25.1313,701.0469 Q25.7563,701.0469 26.35,700.7813 Q26.9438,700.5 27.5688,699.9219 L27.5688,702.6406 Z "/><text fill="#000000" font-family="sans-serif" font-size="12" lengthAdjust="spacingAndGlyphs" textLength="60" x="39.4" y="701.1543">AirlineDto</text><line style="stroke: #A80036; stroke-width: 1.5;" x1="7" x2="105" y1="713" y2="713"/><ellipse cx="17" cy="724" fill="none" rx="3" ry="3" style="stroke: #038048; stroke-width: 1.0;"/><text fill="#000000" font-family="sans-serif" font-size="11" lengthAdjust="spacingAndGlyphs" textLength="69" x="26" y="727.2104">code: String</text><ellipse cx="17" cy="736.8047" fill="none" rx="3" ry="3" style="stroke: #038048; stroke-width: 1.0;"/><text fill="#000000" font-family="sans-serif" font-size="11" lengthAdjust="spacingAndGlyphs" textLength="74" x="26" y="740.0151">name: String</text><line style="stroke: #A80036; stroke-width: 1.5;" x1="7" x2="105" y1="746.6094" y2="746.6094"/><!--class AirportDto--><rect fill="#FEFECE" filter="url(#f3j8j69pg7uby)" height="146.4375" id="AirportDto" style="stroke: #A80036; stroke-width: 1.5;" width="139" x="141.5" y="645"/><ellipse cx="175.85" cy="661" fill="#ADD1B2" rx="11" ry="11" style="stroke: #A80036; stroke-width: 1.0;"/><path d="M178.8188,666.6406 Q178.2406,666.9375 177.6,667.0781 Q176.9594,667.2344 176.2563,667.2344 Q173.7563,667.2344 172.4281,665.5938 Q171.1156,663.9375 171.1156,660.8125 Q171.1156,657.6875 172.4281,656.0313 Q173.7563,654.375 176.2563,654.375 Q176.9594,654.375 177.6,654.5313 Q178.2563,654.6875 178.8188,654.9844 L178.8188,657.7031 Q178.1938,657.125 177.6,656.8594 Q177.0063,656.5781 176.3813,656.5781 Q175.0375,656.5781 174.35,657.6563 Q173.6625,658.7188 173.6625,660.8125 Q173.6625,662.9063 174.35,663.9844 Q175.0375,665.0469 176.3813,665.0469 Q177.0063,665.0469 177.6,664.7813 Q178.1938,664.5 178.8188,663.9219 L178.8188,666.6406 Z "/><text fill="#000000" font-family="sans-serif" font-size="12" lengthAdjust="spacingAndGlyphs" textLength="64" x="194.15" y="665.1543">AirportDto</text><line style="stroke: #A80036; stroke-width: 1.5;" x1="142.5" x2="279.5" y1="677" y2="677"/><ellipse cx="152.5" cy="704.8047" fill="none" rx="3" ry="3" style="stroke: #038048; stroke-width: 1.0;"/><text fill="#000000" font-family="sans-serif" font-size="11" lengthAdjust="spacingAndGlyphs" textLength="32" x="161.5" y="708.0151">id: int</text><ellipse cx="152.5" cy="717.6094" fill="none" rx="3" ry="3" style="stroke: #038048; stroke-width: 1.0;"/><text fill="#000000" font-family="sans-serif" font-size="11" lengthAdjust="spacingAndGlyphs" textLength="63" x="161.5" y="720.8198">iata: String</text><ellipse cx="152.5" cy="730.4141" fill="none" rx="3" ry="3" style="stroke: #038048; stroke-width: 1.0;"/><text fill="#000000" font-family="sans-serif" font-size="11" lengthAdjust="spacingAndGlyphs" textLength="65" x="161.5" y="733.6245">icao: String</text><ellipse cx="152.5" cy="743.2188" fill="none" rx="3" ry="3" style="stroke: #038048; stroke-width: 1.0;"/><text fill="#000000" font-family="sans-serif" font-size="11" lengthAdjust="spacingAndGlyphs" textLength="113" x="161.5" y="746.4292">airportName: String</text><ellipse cx="152.5" cy="756.0234" fill="none" rx="3" ry="3" style="stroke: #038048; stroke-width: 1.0;"/><text fill="#000000" font-family="sans-serif" font-size="11" lengthAdjust="spacingAndGlyphs" textLength="61" x="161.5" y="759.2339">city: String</text><ellipse cx="152.5" cy="768.8281" fill="none" rx="3" ry="3" style="stroke: #038048; stroke-width: 1.0;"/><text fill="#000000" font-family="sans-serif" font-size="11" lengthAdjust="spacingAndGlyphs" textLength="84" x="161.5" y="772.0386">country: String</text><ellipse cx="152.5" cy="781.6328" fill="none" rx="3" ry="3" style="stroke: #038048; stroke-width: 1.0;"/><text fill="#000000" font-family="sans-serif" font-size="11" lengthAdjust="spacingAndGlyphs" textLength="73" x="161.5" y="784.8433">timezone: int</text><line style="stroke: #A80036; stroke-width: 1.5;" x1="142.5" x2="183.5" y1="691.4023" y2="691.4023"/><text fill="#000000" font-family="sans-serif" font-size="11" lengthAdjust="spacingAndGlyphs" textLength="55" x="183.5" y="694.7104">attributes</text><line style="stroke: #A80036; stroke-width: 1.5;" x1="238.5" x2="279.5" y1="691.4023" y2="691.4023"/><!--class BookingRequestDto--><rect fill="#FEFECE" filter="url(#f3j8j69pg7uby)" height="73.6094" id="BookingRequestDto" style="stroke: #A80036; stroke-width: 1.5;" width="230" x="115" y="8"/><ellipse cx="163.75" cy="24" fill="#ADD1B2" rx="11" ry="11" style="stroke: #A80036; stroke-width: 1.0;"/><path d="M166.7188,29.6406 Q166.1406,29.9375 165.5,30.0781 Q164.8594,30.2344 164.1563,30.2344 Q161.6563,30.2344 160.3281,28.5938 Q159.0156,26.9375 159.0156,23.8125 Q159.0156,20.6875 160.3281,19.0313 Q161.6563,17.375 164.1563,17.375 Q164.8594,17.375 165.5,17.5313 Q166.1563,17.6875 166.7188,17.9844 L166.7188,20.7031 Q166.0938,20.125 165.5,19.8594 Q164.9063,19.5781 164.2813,19.5781 Q162.9375,19.5781 162.25,20.6563 Q161.5625,21.7188 161.5625,23.8125 Q161.5625,25.9063 162.25,26.9844 Q162.9375,28.0469 164.2813,28.0469 Q164.9063,28.0469 165.5,27.7813 Q166.0938,27.5 166.7188,26.9219 L166.7188,29.6406 Z "/><text fill="#000000" font-family="sans-serif" font-size="12" lengthAdjust="spacingAndGlyphs" textLength="124" x="184.25" y="28.1543">BookingRequestDto</text><line style="stroke: #A80036; stroke-width: 1.5;" x1="116" x2="344" y1="40" y2="40"/><ellipse cx="126" cy="51" fill="none" rx="3" ry="3" style="stroke: #038048; stroke-width: 1.0;"/><text fill="#000000" font-family="sans-serif" font-size="11" lengthAdjust="spacingAndGlyphs" textLength="112" x="135" y="54.2104">chosenTrip: TripDto</text><ellipse cx="126" cy="63.8047" fill="none" rx="3" ry="3" style="stroke: #038048; stroke-width: 1.0;"/><text fill="#000000" font-family="sans-serif" font-size="11" lengthAdjust="spacingAndGlyphs" textLength="204" x="135" y="67.0151">passengers: Array&lt;PassengerDto&gt;</text><line style="stroke: #A80036; stroke-width: 1.5;" x1="116" x2="344" y1="73.6094" y2="73.6094"/><!--class PassengerDto--><rect fill="#FEFECE" filter="url(#f3j8j69pg7uby)" height="124.8281" id="PassengerDto" style="stroke: #A80036; stroke-width: 1.5;" width="148" x="254" y="142"/><ellipse cx="281.15" cy="158" fill="#ADD1B2" rx="11" ry="11" style="stroke: #A80036; stroke-width: 1.0;"/><path d="M284.1188,163.6406 Q283.5406,163.9375 282.9,164.0781 Q282.2594,164.2344 281.5563,164.2344 Q279.0563,164.2344 277.7281,162.5938 Q276.4156,160.9375 276.4156,157.8125 Q276.4156,154.6875 277.7281,153.0313 Q279.0563,151.375 281.5563,151.375 Q282.2594,151.375 282.9,151.5313 Q283.5563,151.6875 284.1188,151.9844 L284.1188,154.7031 Q283.4938,154.125 282.9,153.8594 Q282.3063,153.5781 281.6813,153.5781 Q280.3375,153.5781 279.65,154.6563 Q278.9625,155.7188 278.9625,157.8125 Q278.9625,159.9063 279.65,160.9844 Q280.3375,162.0469 281.6813,162.0469 Q282.3063,162.0469 282.9,161.7813 Q283.4938,161.5 284.1188,160.9219 L284.1188,163.6406 Z "/><text fill="#000000" font-family="sans-serif" font-size="12" lengthAdjust="spacingAndGlyphs" textLength="89" x="297.85" y="162.1543">PassengerDto</text><line style="stroke: #A80036; stroke-width: 1.5;" x1="255" x2="401" y1="174" y2="174"/><ellipse cx="265" cy="185" fill="none" rx="3" ry="3" style="stroke: #038048; stroke-width: 1.0;"/><text fill="#000000" font-family="sans-serif" font-size="11" lengthAdjust="spacingAndGlyphs" textLength="97" x="274" y="188.2104">firstname: String</text><ellipse cx="265" cy="197.8047" fill="none" rx="3" ry="3" style="stroke: #038048; stroke-width: 1.0;"/><text fill="#000000" font-family="sans-serif" font-size="11" lengthAdjust="spacingAndGlyphs" textLength="93" x="274" y="201.0151">surname: String</text><ellipse cx="265" cy="210.6094" fill="none" rx="3" ry="3" style="stroke: #038048; stroke-width: 1.0;"/><text fill="#000000" font-family="sans-serif" font-size="11" lengthAdjust="spacingAndGlyphs" textLength="99" x="274" y="213.8198">dateOfBirth: Date</text><ellipse cx="265" cy="223.4141" fill="none" rx="3" ry="3" style="stroke: #038048; stroke-width: 1.0;"/><text fill="#000000" font-family="sans-serif" font-size="11" lengthAdjust="spacingAndGlyphs" textLength="122" x="274" y="226.6245">phoneNumber: String</text><ellipse cx="265" cy="236.2188" fill="none" rx="3" ry="3" style="stroke: #038048; stroke-width: 1.0;"/><text fill="#000000" font-family="sans-serif" font-size="11" lengthAdjust="spacingAndGlyphs" textLength="73" x="274" y="239.4292">email: String</text><ellipse cx="265" cy="249.0234" fill="none" rx="3" ry="3" style="stroke: #038048; stroke-width: 1.0;"/><text fill="#000000" font-family="sans-serif" font-size="11" lengthAdjust="spacingAndGlyphs" textLength="97" x="274" y="252.2339">idOrPesel: String</text><line style="stroke: #A80036; stroke-width: 1.5;" x1="255" x2="401" y1="258.8281" y2="258.8281"/><!--reverse link TripDto to TicketDto--><path d="M133,267.47 C133,287.0423 133,308.3325 133,326.8623 " fill="none" id="TripDto&lt;-TicketDto" style="stroke: #A80036; stroke-width: 1.0;"/><polygon fill="#A80036" points="133,254.2495,129,260.2495,133,266.2495,137,260.2495,133,254.2495" style="stroke: #A80036; stroke-width: 1.0;"/><!--reverse link TicketDto to FlightDto--><path d="M133,439.59 C133,454.9507 133,471.1659 133,485.8046 " fill="none" id="TicketDto&lt;-FlightDto" style="stroke: #A80036; stroke-width: 1.0;"/><polygon fill="#A80036" points="133,426.3723,129,432.3723,133,438.3723,137,432.3723,133,426.3723" style="stroke: #A80036; stroke-width: 1.0;"/><!--reverse link FlightDto to AirportDto--><path d="M159.426,597.3302 C165.9618,612.6222 173.0252,629.1486 179.7659,644.9203 " fill="none" id="FlightDto&lt;-AirportDto" style="stroke: #A80036; stroke-width: 1.0;"/><polygon fill="#A80036" points="154.3138,585.3689,152.9937,592.4581,159.0299,596.4033,160.35,589.3141,154.3138,585.3689" style="stroke: #A80036; stroke-width: 1.0;"/><!--reverse link FlightDto to AirlineDto--><path d="M106.8896,597.385 C95.1799,625.1386 81.7586,656.9488 71.6401,680.931 " fill="none" id="FlightDto&lt;-AirlineDto" style="stroke: #A80036; stroke-width: 1.0;"/><polygon fill="#A80036" points="111.9594,585.3689,105.9416,589.3421,107.2946,596.4251,113.3124,592.4519,111.9594,585.3689" style="stroke: #A80036; stroke-width: 1.0;"/><!--reverse link BookingRequestDto to TripDto--><path d="M200.3538,93.7481 C188.5506,113.1564 174.9831,135.466 163.1322,154.9527 " fill="none" id="BookingRequestDto&lt;-TripDto" style="stroke: #A80036; stroke-width: 1.0;"/><polygon fill="#A80036" points="207.2578,82.3957,200.7225,85.4437,201.0224,92.6485,207.5577,89.6006,207.2578,82.3957" style="stroke: #A80036; stroke-width: 1.0;"/><!--reverse link BookingRequestDto to PassengerDto--><path d="M259.8654,93.6074 C269.1898,108.7834 279.6109,125.7443 289.4436,141.7476 " fill="none" id="BookingRequestDto&lt;-PassengerDto" style="stroke: #A80036; stroke-width: 1.0;"/><polygon fill="#A80036" points="252.9766,82.3957,252.7095,89.6019,259.2586,92.62,259.5257,85.4139,252.9766,82.3957" style="stroke: #A80036; stroke-width: 1.0;"/><!--
@startuml dtos
class TripDto {
  + tickets: Array<TicketDto>
  + departureDate: Date
  + arrivalDate: Date
  + totalPrice: Price
}

class TicketDto {
  + flight: FlightDto
  + departureDate: Date
  + arrivalDate: Date
  + totalPrice: number
}

class FlightDto {
  + flightId: int
  + airline: AirlineDto
  + srcAirport: AirportDto
  + dstAirport: AirportDto
}

class AirlineDto {
  + code: String
  + name: String
}

class AirportDto {
  __ attributes __
  + id: int
  + iata: String
  + icao: String
  + airportName: String
  + city: String
  + country: String
  + timezone: int
}

class BookingRequestDto {
  + chosenTrip: TripDto
  + passengers: Array<PassengerDto>
}

class PassengerDto {
  + firstname: String
  + surname: String
  + dateOfBirth: Date
  + phoneNumber: String
  + email: String
  + idOrPesel: String
}

TripDto *- - TicketDto
TicketDto *- - FlightDto
FlightDto *- - AirportDto
FlightDto *- - AirlineDto

BookingRequestDto *- - TripDto
BookingRequestDto *- - PassengerDto
@enduml

PlantUML version 1.2019.09(Mon Aug 26 18:19:51 CEST 2019)
(GPL source distribution)
Java Runtime: OpenJDK Runtime Environment
JVM: OpenJDK 64-Bit Server VM
Java Version: 1.8.0_252-8u252-b09-1~18.04-b09
Operating System: Linux
OS Version: 4.15.0-99-generic
Default Encoding: UTF-8
Language: pl
Country: PL
--></g></svg>