<?xml version="1.0" encoding="UTF-8" standalone="no"?><svg xmlns="http://www.w3.org/2000/svg" xmlns:xlink="http://www.w3.org/1999/xlink" contentScriptType="application/ecmascript" contentStyleType="text/css" height="783px" preserveAspectRatio="none" style="width:413px;height:783px;" version="1.1" viewBox="0 0 413 783" width="413px" zoomAndPan="magnify"><defs><filter height="300%" id="f188pulo5olh2y" width="300%" x="-1" y="-1"><feGaussianBlur result="blurOut" stdDeviation="2.0"/><feColorMatrix in="blurOut" result="blurOut2" type="matrix" values="0 0 0 0 0 0 0 0 0 0 0 0 0 0 0 0 0 0 .4 0"/><feOffset dx="4.0" dy="4.0" in="blurOut2" result="blurOut3"/><feBlend in="SourceGraphic" in2="blurOut3" mode="normal"/></filter></defs><g><!--MD5=[7b58b314a2f8da7b8ecbdc35e27714cf]
class TripDto--><rect fill="#FEFECE" filter="url(#f188pulo5olh2y)" height="99.2188" id="TripDto" style="stroke: #A80036; stroke-width: 1.5;" width="172" x="39.5" y="154"/><ellipse cx="99.25" cy="170" fill="#ADD1B2" rx="11" ry="11" style="stroke: #A80036; stroke-width: 1.0;"/><path d="M101.5938,165.6719 C100.6563,165.2344 100.0625,165.0938 99.1875,165.0938 C96.5625,165.0938 94.5625,167.1719 94.5625,169.8906 L94.5625,171.0156 C94.5625,173.5938 96.6719,175.4844 99.5625,175.4844 C100.7813,175.4844 101.9375,175.1875 102.6875,174.6406 C103.2656,174.2344 103.5938,173.7813 103.5938,173.3906 C103.5938,172.9375 103.2031,172.5469 102.7344,172.5469 C102.5156,172.5469 102.3125,172.625 102.125,172.8125 C101.6719,173.2969 101.6719,173.2969 101.4844,173.3906 C101.0625,173.6563 100.375,173.7813 99.6094,173.7813 C97.5625,173.7813 96.2656,172.6875 96.2656,170.9844 L96.2656,169.8906 C96.2656,168.1094 97.5156,166.7969 99.25,166.7969 C99.8281,166.7969 100.4375,166.9531 100.9063,167.2031 C101.3906,167.4844 101.5625,167.7031 101.6563,168.1094 C101.7188,168.5156 101.75,168.6406 101.8906,168.7656 C102.0313,168.9063 102.2656,169.0156 102.4844,169.0156 C102.75,169.0156 103.0156,168.875 103.1875,168.6563 C103.2969,168.5 103.3281,168.3125 103.3281,167.8906 L103.3281,166.4688 C103.3281,166.0313 103.3125,165.9063 103.2188,165.75 C103.0625,165.4844 102.7813,165.3438 102.4844,165.3438 C102.1875,165.3438 101.9844,165.4375 101.7656,165.75 L101.5938,165.6719 Z "/><text fill="#000000" font-family="sans-serif" font-size="12" lengthAdjust="spacingAndGlyphs" textLength="44" x="119.75" y="174.1543">TripDto</text><line style="stroke: #A80036; stroke-width: 1.5;" x1="40.5" x2="210.5" y1="186" y2="186"/><ellipse cx="50.5" cy="197" fill="none" rx="3" ry="3" style="stroke: #038048; stroke-width: 1.0;"/><text fill="#000000" font-family="sans-serif" font-size="11" lengthAdjust="spacingAndGlyphs" textLength="146" x="59.5" y="200.2104">tickets: Array&lt;TicketDto&gt;</text><ellipse cx="50.5" cy="209.8047" fill="none" rx="3" ry="3" style="stroke: #038048; stroke-width: 1.0;"/><text fill="#000000" font-family="sans-serif" font-size="11" lengthAdjust="spacingAndGlyphs" textLength="119" x="59.5" y="213.0151">departureDate: Date</text><ellipse cx="50.5" cy="222.6094" fill="none" rx="3" ry="3" style="stroke: #038048; stroke-width: 1.0;"/><text fill="#000000" font-family="sans-serif" font-size="11" lengthAdjust="spacingAndGlyphs" textLength="98" x="59.5" y="225.8198">arrivalDate: Date</text><ellipse cx="50.5" cy="235.4141" fill="none" rx="3" ry="3" style="stroke: #038048; stroke-width: 1.0;"/><text fill="#000000" font-family="sans-serif" font-size="11" lengthAdjust="spacingAndGlyphs" textLength="103" x="59.5" y="238.6245">totalPrice: number</text><line style="stroke: #A80036; stroke-width: 1.5;" x1="40.5" x2="210.5" y1="245.2188" y2="245.2188"/><!--MD5=[31c308ab456b6590c5d859d77f85c0fe]
class TicketDto--><rect fill="#FEFECE" filter="url(#f188pulo5olh2y)" height="99.2188" id="TicketDto" style="stroke: #A80036; stroke-width: 1.5;" width="145" x="53" y="326"/><ellipse cx="93.2" cy="342" fill="#ADD1B2" rx="11" ry="11" style="stroke: #A80036; stroke-width: 1.0;"/><path d="M95.5438,337.6719 C94.6063,337.2344 94.0125,337.0938 93.1375,337.0938 C90.5125,337.0938 88.5125,339.1719 88.5125,341.8906 L88.5125,343.0156 C88.5125,345.5938 90.6219,347.4844 93.5125,347.4844 C94.7313,347.4844 95.8875,347.1875 96.6375,346.6406 C97.2156,346.2344 97.5438,345.7813 97.5438,345.3906 C97.5438,344.9375 97.1531,344.5469 96.6844,344.5469 C96.4656,344.5469 96.2625,344.625 96.075,344.8125 C95.6219,345.2969 95.6219,345.2969 95.4344,345.3906 C95.0125,345.6563 94.325,345.7813 93.5594,345.7813 C91.5125,345.7813 90.2156,344.6875 90.2156,342.9844 L90.2156,341.8906 C90.2156,340.1094 91.4656,338.7969 93.2,338.7969 C93.7781,338.7969 94.3875,338.9531 94.8563,339.2031 C95.3406,339.4844 95.5125,339.7031 95.6063,340.1094 C95.6688,340.5156 95.7,340.6406 95.8406,340.7656 C95.9813,340.9063 96.2156,341.0156 96.4344,341.0156 C96.7,341.0156 96.9656,340.875 97.1375,340.6563 C97.2469,340.5 97.2781,340.3125 97.2781,339.8906 L97.2781,338.4688 C97.2781,338.0313 97.2625,337.9063 97.1688,337.75 C97.0125,337.4844 96.7313,337.3438 96.4344,337.3438 C96.1375,337.3438 95.9344,337.4375 95.7156,337.75 L95.5438,337.6719 Z "/><text fill="#000000" font-family="sans-serif" font-size="12" lengthAdjust="spacingAndGlyphs" textLength="57" x="112.8" y="346.1543">TicketDto</text><line style="stroke: #A80036; stroke-width: 1.5;" x1="54" x2="197" y1="358" y2="358"/><ellipse cx="64" cy="369" fill="none" rx="3" ry="3" style="stroke: #038048; stroke-width: 1.0;"/><text fill="#000000" font-family="sans-serif" font-size="11" lengthAdjust="spacingAndGlyphs" textLength="85" x="73" y="372.2104">flight: FlightDto</text><ellipse cx="64" cy="381.8047" fill="none" rx="3" ry="3" style="stroke: #038048; stroke-width: 1.0;"/><text fill="#000000" font-family="sans-serif" font-size="11" lengthAdjust="spacingAndGlyphs" textLength="119" x="73" y="385.0151">departureDate: Date</text><ellipse cx="64" cy="394.6094" fill="none" rx="3" ry="3" style="stroke: #038048; stroke-width: 1.0;"/><text fill="#000000" font-family="sans-serif" font-size="11" lengthAdjust="spacingAndGlyphs" textLength="98" x="73" y="397.8198">arrivalDate: Date</text><ellipse cx="64" cy="407.4141" fill="none" rx="3" ry="3" style="stroke: #038048; stroke-width: 1.0;"/><text fill="#000000" font-family="sans-serif" font-size="11" lengthAdjust="spacingAndGlyphs" textLength="103" x="73" y="410.6245">totalPrice: number</text><line style="stroke: #A80036; stroke-width: 1.5;" x1="54" x2="197" y1="417.2188" y2="417.2188"/><!--MD5=[d85a94d699d1eb5dd9710c890cb3d965]
class FlightDto--><rect fill="#FEFECE" filter="url(#f188pulo5olh2y)" height="99.2188" id="FlightDto" style="stroke: #A80036; stroke-width: 1.5;" width="144" x="53.5" y="485"/><ellipse cx="95.05" cy="501" fill="#ADD1B2" rx="11" ry="11" style="stroke: #A80036; stroke-width: 1.0;"/><path d="M97.3938,496.6719 C96.4563,496.2344 95.8625,496.0938 94.9875,496.0938 C92.3625,496.0938 90.3625,498.1719 90.3625,500.8906 L90.3625,502.0156 C90.3625,504.5938 92.4719,506.4844 95.3625,506.4844 C96.5813,506.4844 97.7375,506.1875 98.4875,505.6406 C99.0656,505.2344 99.3938,504.7813 99.3938,504.3906 C99.3938,503.9375 99.0031,503.5469 98.5344,503.5469 C98.3156,503.5469 98.1125,503.625 97.925,503.8125 C97.4719,504.2969 97.4719,504.2969 97.2844,504.3906 C96.8625,504.6563 96.175,504.7813 95.4094,504.7813 C93.3625,504.7813 92.0656,503.6875 92.0656,501.9844 L92.0656,500.8906 C92.0656,499.1094 93.3156,497.7969 95.05,497.7969 C95.6281,497.7969 96.2375,497.9531 96.7063,498.2031 C97.1906,498.4844 97.3625,498.7031 97.4563,499.1094 C97.5188,499.5156 97.55,499.6406 97.6906,499.7656 C97.8313,499.9063 98.0656,500.0156 98.2844,500.0156 C98.55,500.0156 98.8156,499.875 98.9875,499.6563 C99.0969,499.5 99.1281,499.3125 99.1281,498.8906 L99.1281,497.4688 C99.1281,497.0313 99.1125,496.9063 99.0188,496.75 C98.8625,496.4844 98.5813,496.3438 98.2844,496.3438 C97.9875,496.3438 97.7844,496.4375 97.5656,496.75 L97.3938,496.6719 Z "/><text fill="#000000" font-family="sans-serif" font-size="12" lengthAdjust="spacingAndGlyphs" textLength="53" x="114.95" y="505.1543">FlightDto</text><line style="stroke: #A80036; stroke-width: 1.5;" x1="54.5" x2="196.5" y1="517" y2="517"/><ellipse cx="64.5" cy="528" fill="none" rx="3" ry="3" style="stroke: #038048; stroke-width: 1.0;"/><text fill="#000000" font-family="sans-serif" font-size="11" lengthAdjust="spacingAndGlyphs" textLength="59" x="73.5" y="531.2104">flightId: int</text><ellipse cx="64.5" cy="540.8047" fill="none" rx="3" ry="3" style="stroke: #038048; stroke-width: 1.0;"/><text fill="#000000" font-family="sans-serif" font-size="11" lengthAdjust="spacingAndGlyphs" textLength="98" x="73.5" y="544.0151">airline: AirlineDto</text><ellipse cx="64.5" cy="553.6094" fill="none" rx="3" ry="3" style="stroke: #038048; stroke-width: 1.0;"/><text fill="#000000" font-family="sans-serif" font-size="11" lengthAdjust="spacingAndGlyphs" textLength="117" x="73.5" y="556.8198">srcAirport: AirportDto</text><ellipse cx="64.5" cy="566.4141" fill="none" rx="3" ry="3" style="stroke: #038048; stroke-width: 1.0;"/><text fill="#000000" font-family="sans-serif" font-size="11" lengthAdjust="spacingAndGlyphs" textLength="118" x="73.5" y="569.6245">dstAirport: AirportDto</text><line style="stroke: #A80036; stroke-width: 1.5;" x1="54.5" x2="196.5" y1="576.2188" y2="576.2188"/><!--MD5=[48bc0100a092ab82c8b8723ff088d6c2]
class AirlineDto--><rect fill="#FEFECE" filter="url(#f188pulo5olh2y)" height="73.6094" id="AirlineDto" style="stroke: #A80036; stroke-width: 1.5;" width="99" x="7" y="667.5"/><ellipse cx="26.05" cy="683.5" fill="#ADD1B2" rx="11" ry="11" style="stroke: #A80036; stroke-width: 1.0;"/><path d="M28.3938,679.1719 C27.4563,678.7344 26.8625,678.5938 25.9875,678.5938 C23.3625,678.5938 21.3625,680.6719 21.3625,683.3906 L21.3625,684.5156 C21.3625,687.0938 23.4719,688.9844 26.3625,688.9844 C27.5813,688.9844 28.7375,688.6875 29.4875,688.1406 C30.0656,687.7344 30.3938,687.2813 30.3938,686.8906 C30.3938,686.4375 30.0031,686.0469 29.5344,686.0469 C29.3156,686.0469 29.1125,686.125 28.925,686.3125 C28.4719,686.7969 28.4719,686.7969 28.2844,686.8906 C27.8625,687.1563 27.175,687.2813 26.4094,687.2813 C24.3625,687.2813 23.0656,686.1875 23.0656,684.4844 L23.0656,683.3906 C23.0656,681.6094 24.3156,680.2969 26.05,680.2969 C26.6281,680.2969 27.2375,680.4531 27.7063,680.7031 C28.1906,680.9844 28.3625,681.2031 28.4563,681.6094 C28.5188,682.0156 28.55,682.1406 28.6906,682.2656 C28.8313,682.4063 29.0656,682.5156 29.2844,682.5156 C29.55,682.5156 29.8156,682.375 29.9875,682.1563 C30.0969,682 30.1281,681.8125 30.1281,681.3906 L30.1281,679.9688 C30.1281,679.5313 30.1125,679.4063 30.0188,679.25 C29.8625,678.9844 29.5813,678.8438 29.2844,678.8438 C28.9875,678.8438 28.7844,678.9375 28.5656,679.25 L28.3938,679.1719 Z "/><text fill="#000000" font-family="sans-serif" font-size="12" lengthAdjust="spacingAndGlyphs" textLength="58" x="40.95" y="687.6543">AirlineDto</text><line style="stroke: #A80036; stroke-width: 1.5;" x1="8" x2="105" y1="699.5" y2="699.5"/><ellipse cx="18" cy="710.5" fill="none" rx="3" ry="3" style="stroke: #038048; stroke-width: 1.0;"/><text fill="#000000" font-family="sans-serif" font-size="11" lengthAdjust="spacingAndGlyphs" textLength="68" x="27" y="713.7104">code: String</text><ellipse cx="18" cy="723.3047" fill="none" rx="3" ry="3" style="stroke: #038048; stroke-width: 1.0;"/><text fill="#000000" font-family="sans-serif" font-size="11" lengthAdjust="spacingAndGlyphs" textLength="73" x="27" y="726.5151">name: String</text><line style="stroke: #A80036; stroke-width: 1.5;" x1="8" x2="105" y1="733.1094" y2="733.1094"/><!--MD5=[89e21124499f920e338d10703db844f2]
class AirportDto--><rect fill="#FEFECE" filter="url(#f188pulo5olh2y)" height="120.8281" id="AirportDto" style="stroke: #A80036; stroke-width: 1.5;" width="108" x="141.5" y="644"/><ellipse cx="162.8" cy="660" fill="#ADD1B2" rx="11" ry="11" style="stroke: #A80036; stroke-width: 1.0;"/><path d="M165.1438,655.6719 C164.2063,655.2344 163.6125,655.0938 162.7375,655.0938 C160.1125,655.0938 158.1125,657.1719 158.1125,659.8906 L158.1125,661.0156 C158.1125,663.5938 160.2219,665.4844 163.1125,665.4844 C164.3313,665.4844 165.4875,665.1875 166.2375,664.6406 C166.8156,664.2344 167.1438,663.7813 167.1438,663.3906 C167.1438,662.9375 166.7531,662.5469 166.2844,662.5469 C166.0656,662.5469 165.8625,662.625 165.675,662.8125 C165.2219,663.2969 165.2219,663.2969 165.0344,663.3906 C164.6125,663.6563 163.925,663.7813 163.1594,663.7813 C161.1125,663.7813 159.8156,662.6875 159.8156,660.9844 L159.8156,659.8906 C159.8156,658.1094 161.0656,656.7969 162.8,656.7969 C163.3781,656.7969 163.9875,656.9531 164.4563,657.2031 C164.9406,657.4844 165.1125,657.7031 165.2063,658.1094 C165.2688,658.5156 165.3,658.6406 165.4406,658.7656 C165.5813,658.9063 165.8156,659.0156 166.0344,659.0156 C166.3,659.0156 166.5656,658.875 166.7375,658.6563 C166.8469,658.5 166.8781,658.3125 166.8781,657.8906 L166.8781,656.4688 C166.8781,656.0313 166.8625,655.9063 166.7688,655.75 C166.6125,655.4844 166.3313,655.3438 166.0344,655.3438 C165.7375,655.3438 165.5344,655.4375 165.3156,655.75 L165.1438,655.6719 Z "/><text fill="#000000" font-family="sans-serif" font-size="12" lengthAdjust="spacingAndGlyphs" textLength="62" x="178.2" y="664.1543">AirportDto</text><line style="stroke: #A80036; stroke-width: 1.5;" x1="142.5" x2="248.5" y1="676" y2="676"/><ellipse cx="152.5" cy="703.8047" fill="none" rx="3" ry="3" style="stroke: #038048; stroke-width: 1.0;"/><text fill="#000000" font-family="sans-serif" font-size="11" lengthAdjust="spacingAndGlyphs" textLength="31" x="161.5" y="707.0151">id: int</text><ellipse cx="152.5" cy="716.6094" fill="none" rx="3" ry="3" style="stroke: #038048; stroke-width: 1.0;"/><text fill="#000000" font-family="sans-serif" font-size="11" lengthAdjust="spacingAndGlyphs" textLength="73" x="161.5" y="719.8198">name: String</text><ellipse cx="152.5" cy="729.4141" fill="none" rx="3" ry="3" style="stroke: #038048; stroke-width: 1.0;"/><text fill="#000000" font-family="sans-serif" font-size="11" lengthAdjust="spacingAndGlyphs" textLength="60" x="161.5" y="732.6245">city: String</text><ellipse cx="152.5" cy="742.2188" fill="none" rx="3" ry="3" style="stroke: #038048; stroke-width: 1.0;"/><text fill="#000000" font-family="sans-serif" font-size="11" lengthAdjust="spacingAndGlyphs" textLength="82" x="161.5" y="745.4292">country: String</text><ellipse cx="152.5" cy="755.0234" fill="none" rx="3" ry="3" style="stroke: #038048; stroke-width: 1.0;"/><text fill="#000000" font-family="sans-serif" font-size="11" lengthAdjust="spacingAndGlyphs" textLength="76" x="161.5" y="758.2339">timezone: int</text><line style="stroke: #A80036; stroke-width: 1.5;" x1="142.5" x2="168.5" y1="690.4023" y2="690.4023"/><text fill="#000000" font-family="sans-serif" font-size="11" lengthAdjust="spacingAndGlyphs" textLength="54" x="168.5" y="693.7104">attributes</text><line style="stroke: #A80036; stroke-width: 1.5;" x1="222.5" x2="248.5" y1="690.4023" y2="690.4023"/><!--MD5=[c8d199af2646d0d00c08695a3b7090da]
class BookingRequestDto--><rect fill="#FEFECE" filter="url(#f188pulo5olh2y)" height="73.6094" id="BookingRequestDto" style="stroke: #A80036; stroke-width: 1.5;" width="226" x="109.5" y="7"/><ellipse cx="158.75" cy="23" fill="#ADD1B2" rx="11" ry="11" style="stroke: #A80036; stroke-width: 1.0;"/><path d="M161.0938,18.6719 C160.1563,18.2344 159.5625,18.0938 158.6875,18.0938 C156.0625,18.0938 154.0625,20.1719 154.0625,22.8906 L154.0625,24.0156 C154.0625,26.5938 156.1719,28.4844 159.0625,28.4844 C160.2813,28.4844 161.4375,28.1875 162.1875,27.6406 C162.7656,27.2344 163.0938,26.7813 163.0938,26.3906 C163.0938,25.9375 162.7031,25.5469 162.2344,25.5469 C162.0156,25.5469 161.8125,25.625 161.625,25.8125 C161.1719,26.2969 161.1719,26.2969 160.9844,26.3906 C160.5625,26.6563 159.875,26.7813 159.1094,26.7813 C157.0625,26.7813 155.7656,25.6875 155.7656,23.9844 L155.7656,22.8906 C155.7656,21.1094 157.0156,19.7969 158.75,19.7969 C159.3281,19.7969 159.9375,19.9531 160.4063,20.2031 C160.8906,20.4844 161.0625,20.7031 161.1563,21.1094 C161.2188,21.5156 161.25,21.6406 161.3906,21.7656 C161.5313,21.9063 161.7656,22.0156 161.9844,22.0156 C162.25,22.0156 162.5156,21.875 162.6875,21.6563 C162.7969,21.5 162.8281,21.3125 162.8281,20.8906 L162.8281,19.4688 C162.8281,19.0313 162.8125,18.9063 162.7188,18.75 C162.5625,18.4844 162.2813,18.3438 161.9844,18.3438 C161.6875,18.3438 161.4844,18.4375 161.2656,18.75 L161.0938,18.6719 Z "/><text fill="#000000" font-family="sans-serif" font-size="12" lengthAdjust="spacingAndGlyphs" textLength="119" x="179.25" y="27.1543">BookingRequestDto</text><line style="stroke: #A80036; stroke-width: 1.5;" x1="110.5" x2="334.5" y1="39" y2="39"/><ellipse cx="120.5" cy="50" fill="none" rx="3" ry="3" style="stroke: #038048; stroke-width: 1.0;"/><text fill="#000000" font-family="sans-serif" font-size="11" lengthAdjust="spacingAndGlyphs" textLength="110" x="129.5" y="53.2104">chosenTrip: TripDto</text><ellipse cx="120.5" cy="62.8047" fill="none" rx="3" ry="3" style="stroke: #038048; stroke-width: 1.0;"/><text fill="#000000" font-family="sans-serif" font-size="11" lengthAdjust="spacingAndGlyphs" textLength="200" x="129.5" y="66.0151">passengers: Array&lt;PassengerDto&gt;</text><line style="stroke: #A80036; stroke-width: 1.5;" x1="110.5" x2="334.5" y1="72.6094" y2="72.6094"/><!--MD5=[c70645b285cadc892f49d3d58d699b8a]
class PassengerDto--><rect fill="#FEFECE" filter="url(#f188pulo5olh2y)" height="124.8281" id="PassengerDto" style="stroke: #A80036; stroke-width: 1.5;" width="147" x="247" y="141"/><ellipse cx="275.95" cy="157" fill="#ADD1B2" rx="11" ry="11" style="stroke: #A80036; stroke-width: 1.0;"/><path d="M278.2938,152.6719 C277.3563,152.2344 276.7625,152.0938 275.8875,152.0938 C273.2625,152.0938 271.2625,154.1719 271.2625,156.8906 L271.2625,158.0156 C271.2625,160.5938 273.3719,162.4844 276.2625,162.4844 C277.4813,162.4844 278.6375,162.1875 279.3875,161.6406 C279.9656,161.2344 280.2938,160.7813 280.2938,160.3906 C280.2938,159.9375 279.9031,159.5469 279.4344,159.5469 C279.2156,159.5469 279.0125,159.625 278.825,159.8125 C278.3719,160.2969 278.3719,160.2969 278.1844,160.3906 C277.7625,160.6563 277.075,160.7813 276.3094,160.7813 C274.2625,160.7813 272.9656,159.6875 272.9656,157.9844 L272.9656,156.8906 C272.9656,155.1094 274.2156,153.7969 275.95,153.7969 C276.5281,153.7969 277.1375,153.9531 277.6063,154.2031 C278.0906,154.4844 278.2625,154.7031 278.3563,155.1094 C278.4188,155.5156 278.45,155.6406 278.5906,155.7656 C278.7313,155.9063 278.9656,156.0156 279.1844,156.0156 C279.45,156.0156 279.7156,155.875 279.8875,155.6563 C279.9969,155.5 280.0281,155.3125 280.0281,154.8906 L280.0281,153.4688 C280.0281,153.0313 280.0125,152.9063 279.9188,152.75 C279.7625,152.4844 279.4813,152.3438 279.1844,152.3438 C278.8875,152.3438 278.6844,152.4375 278.4656,152.75 L278.2938,152.6719 Z "/><text fill="#000000" font-family="sans-serif" font-size="12" lengthAdjust="spacingAndGlyphs" textLength="84" x="293.05" y="161.1543">PassengerDto</text><line style="stroke: #A80036; stroke-width: 1.5;" x1="248" x2="393" y1="173" y2="173"/><ellipse cx="258" cy="184" fill="none" rx="3" ry="3" style="stroke: #038048; stroke-width: 1.0;"/><text fill="#000000" font-family="sans-serif" font-size="11" lengthAdjust="spacingAndGlyphs" textLength="94" x="267" y="187.2104">firstname: String</text><ellipse cx="258" cy="196.8047" fill="none" rx="3" ry="3" style="stroke: #038048; stroke-width: 1.0;"/><text fill="#000000" font-family="sans-serif" font-size="11" lengthAdjust="spacingAndGlyphs" textLength="90" x="267" y="200.0151">surname: String</text><ellipse cx="258" cy="209.6094" fill="none" rx="3" ry="3" style="stroke: #038048; stroke-width: 1.0;"/><text fill="#000000" font-family="sans-serif" font-size="11" lengthAdjust="spacingAndGlyphs" textLength="100" x="267" y="212.8198">dateOfBirth: Date</text><ellipse cx="258" cy="222.4141" fill="none" rx="3" ry="3" style="stroke: #038048; stroke-width: 1.0;"/><text fill="#000000" font-family="sans-serif" font-size="11" lengthAdjust="spacingAndGlyphs" textLength="121" x="267" y="225.6245">phoneNumber: String</text><ellipse cx="258" cy="235.2188" fill="none" rx="3" ry="3" style="stroke: #038048; stroke-width: 1.0;"/><text fill="#000000" font-family="sans-serif" font-size="11" lengthAdjust="spacingAndGlyphs" textLength="72" x="267" y="238.4292">email: String</text><ellipse cx="258" cy="248.0234" fill="none" rx="3" ry="3" style="stroke: #038048; stroke-width: 1.0;"/><text fill="#000000" font-family="sans-serif" font-size="11" lengthAdjust="spacingAndGlyphs" textLength="72" x="267" y="251.2339">pesel: String</text><line style="stroke: #A80036; stroke-width: 1.5;" x1="248" x2="393" y1="257.8281" y2="257.8281"/><!--MD5=[91c2f31d26995247e0c4fe55c6ffdce2]
reverse link TripDto to TicketDto--><path d="M125.5,266.414 C125.5,285.966 125.5,307.282 125.5,325.778 " fill="none" id="TripDto&lt;-TicketDto" style="stroke: #A80036; stroke-width: 1.0;"/><polygon fill="#A80036" points="125.5,253.215,121.5,259.215,125.5,265.215,129.5,259.215,125.5,253.215" style="stroke: #A80036; stroke-width: 1.0;"/><!--MD5=[a475d0ba80b2e1ec324fc61ec3b65274]
reverse link TicketDto to FlightDto--><path d="M125.5,438.58 C125.5,454.006 125.5,470.317 125.5,484.985 " fill="none" id="TicketDto&lt;-FlightDto" style="stroke: #A80036; stroke-width: 1.0;"/><polygon fill="#A80036" points="125.5,425.315,121.5,431.315,125.5,437.315,129.5,431.315,125.5,425.315" style="stroke: #A80036; stroke-width: 1.0;"/><!--MD5=[c9914aeb9f7bea59e587872e09a9c1a4]
reverse link FlightDto to AirportDto--><path d="M150.819,596.266 C157.295,611.809 164.252,628.504 170.701,643.983 " fill="none" id="FlightDto&lt;-AirportDto" style="stroke: #A80036; stroke-width: 1.0;"/><polygon fill="#A80036" points="145.747,584.093,144.3624,591.1699,150.3624,595.1699,151.747,588.093,145.747,584.093" style="stroke: #A80036; stroke-width: 1.0;"/><!--MD5=[6df0c4b80077ebdf81c46ee894be3be7]
reverse link FlightDto to AirlineDto--><path d="M100.5476,596.254 C90.7672,620.067 79.8756,646.586 71.3698,667.2953 " fill="none" id="FlightDto&lt;-AirlineDto" style="stroke: #A80036; stroke-width: 1.0;"/><polygon fill="#A80036" points="105.5423,584.093,99.5628,588.1236,100.9836,595.1934,106.9631,591.1628,105.5423,584.093" style="stroke: #A80036; stroke-width: 1.0;"/><!--MD5=[64ba2afd55546d4757d219ad8270ebab]
reverse link BookingRequestDto to TripDto--><path d="M193.418,92.221 C181.398,111.738 167.472,134.35 155.371,153.998 " fill="none" id="BookingRequestDto&lt;-TripDto" style="stroke: #A80036; stroke-width: 1.0;"/><polygon fill="#A80036" points="200.246,81.134,193.6937,84.1451,193.953,91.3515,200.5054,88.3404,200.246,81.134" style="stroke: #A80036; stroke-width: 1.0;"/><!--MD5=[93f3c004e6cf11c3daa1a3314dbb339b]
reverse link BookingRequestDto to PassengerDto--><path d="M251.985,92.387 C261.479,107.644 272.14,124.778 282.174,140.904 " fill="none" id="BookingRequestDto&lt;-PassengerDto" style="stroke: #A80036; stroke-width: 1.0;"/><polygon fill="#A80036" points="244.983,81.134,244.7564,88.3415,251.3223,91.3229,251.549,84.1153,244.983,81.134" style="stroke: #A80036; stroke-width: 1.0;"/><!--MD5=[8b80d88e1a707f490df5dc7eab37605e]
@startuml
class TripDto {
  + tickets: Array<TicketDto>
  + departureDate: Date
  + arrivalDate: Date
  + totalPrice: number
}

class TicketDto {
  + flight: FlightDto
  + departureDate: Date
  + arrivalDate: Date
  + totalPrice: number
}

class FlightDto {
  + flightId: int
  + airline: AirlineDto
  + srcAirport: AirportDto
  + dstAirport: AirportDto
}

class AirlineDto {
  + code: String
  + name: String
}

class AirportDto {
  __ attributes __
  + id: int
  + name: String
  + city: String
  + country: String
  + timezone: int
}

class BookingRequestDto {
  + chosenTrip: TripDto
  + passengers: Array<PassengerDto>
}

class PassengerDto {
  + firstname: String
  + surname: String
  + dateOfBirth: Date
  + phoneNumber: String
  + email: String
  + pesel: String
}

TripDto *- - TicketDto
TicketDto *- - FlightDto
FlightDto *- - AirportDto
FlightDto *- - AirlineDto

BookingRequestDto *- - TripDto
BookingRequestDto *- - PassengerDto
@enduml

PlantUML version 1.2020.15beta1(Unknown compile time)
(GPL source distribution)
Java Runtime: Java(TM) SE Runtime Environment
JVM: Java HotSpot(TM) 64-Bit Server VM
Default Encoding: UTF-8
Language: en
Country: US
--></g></svg>