<?xml version="1.0" encoding="UTF-8" standalone="no"?><svg xmlns="http://www.w3.org/2000/svg" xmlns:xlink="http://www.w3.org/1999/xlink" contentScriptType="application/ecmascript" contentStyleType="text/css" height="1027px" preserveAspectRatio="none" style="width:694px;height:1027px;" version="1.1" viewBox="0 0 694 1027" width="694px" zoomAndPan="magnify"><defs><filter height="300%" id="f12pvmvrkhxpbs" width="300%" x="-1" y="-1"><feGaussianBlur result="blurOut" stdDeviation="2.0"/><feColorMatrix in="blurOut" result="blurOut2" type="matrix" values="0 0 0 0 0 0 0 0 0 0 0 0 0 0 0 0 0 0 .4 0"/><feOffset dx="4.0" dy="4.0" in="blurOut2" result="blurOut3"/><feBlend in="SourceGraphic" in2="blurOut3" mode="normal"/></filter></defs><g><!--class Airport--><rect fill="#FEFECE" filter="url(#f12pvmvrkhxpbs)" height="159.2422" id="Airport" style="stroke: #A80036; stroke-width: 1.5;" width="139" x="200.5" y="857"/><ellipse cx="244.75" cy="873" fill="#ADD1B2" rx="11" ry="11" style="stroke: #A80036; stroke-width: 1.0;"/><path d="M247.7188,878.6406 Q247.1406,878.9375 246.5,879.0781 Q245.8594,879.2344 245.1563,879.2344 Q242.6563,879.2344 241.3281,877.5938 Q240.0156,875.9375 240.0156,872.8125 Q240.0156,869.6875 241.3281,868.0313 Q242.6563,866.375 245.1563,866.375 Q245.8594,866.375 246.5,866.5313 Q247.1563,866.6875 247.7188,866.9844 L247.7188,869.7031 Q247.0938,869.125 246.5,868.8594 Q245.9063,868.5781 245.2813,868.5781 Q243.9375,868.5781 243.25,869.6563 Q242.5625,870.7188 242.5625,872.8125 Q242.5625,874.9063 243.25,875.9844 Q243.9375,877.0469 245.2813,877.0469 Q245.9063,877.0469 246.5,876.7813 Q247.0938,876.5 247.7188,875.9219 L247.7188,878.6406 Z "/><text fill="#000000" font-family="sans-serif" font-size="12" lengthAdjust="spacingAndGlyphs" textLength="42" x="265.25" y="877.1543">Airport</text><line style="stroke: #A80036; stroke-width: 1.5;" x1="201.5" x2="338.5" y1="889" y2="889"/><rect fill="none" height="6" style="stroke: #C82930; stroke-width: 1.0;" width="6" x="208.5" y="913.8047"/><text fill="#000000" font-family="sans-serif" font-size="11" lengthAdjust="spacingAndGlyphs" textLength="32" x="220.5" y="920.0151">id: int</text><rect fill="none" height="6" style="stroke: #C82930; stroke-width: 1.0;" width="6" x="208.5" y="926.6094"/><text fill="#000000" font-family="sans-serif" font-size="11" lengthAdjust="spacingAndGlyphs" textLength="63" x="220.5" y="932.8198">iata: String</text><rect fill="none" height="6" style="stroke: #C82930; stroke-width: 1.0;" width="6" x="208.5" y="939.4141"/><text fill="#000000" font-family="sans-serif" font-size="11" lengthAdjust="spacingAndGlyphs" textLength="65" x="220.5" y="945.6245">icao: String</text><rect fill="none" height="6" style="stroke: #C82930; stroke-width: 1.0;" width="6" x="208.5" y="952.2188"/><text fill="#000000" font-family="sans-serif" font-size="11" lengthAdjust="spacingAndGlyphs" textLength="113" x="220.5" y="958.4292">airportName: String</text><rect fill="none" height="6" style="stroke: #C82930; stroke-width: 1.0;" width="6" x="208.5" y="965.0234"/><text fill="#000000" font-family="sans-serif" font-size="11" lengthAdjust="spacingAndGlyphs" textLength="61" x="220.5" y="971.2339">city: String</text><rect fill="none" height="6" style="stroke: #C82930; stroke-width: 1.0;" width="6" x="208.5" y="977.8281"/><text fill="#000000" font-family="sans-serif" font-size="11" lengthAdjust="spacingAndGlyphs" textLength="84" x="220.5" y="984.0386">country: String</text><rect fill="none" height="6" style="stroke: #C82930; stroke-width: 1.0;" width="6" x="208.5" y="990.6328"/><text fill="#000000" font-family="sans-serif" font-size="11" lengthAdjust="spacingAndGlyphs" textLength="103" x="220.5" y="996.8433">coordinates: Point</text><rect fill="none" height="6" style="stroke: #C82930; stroke-width: 1.0;" width="6" x="208.5" y="1003.4375"/><text fill="#000000" font-family="sans-serif" font-size="11" lengthAdjust="spacingAndGlyphs" textLength="73" x="220.5" y="1009.6479">timezone: int</text><line style="stroke: #A80036; stroke-width: 1.5;" x1="201.5" x2="242.5" y1="903.4023" y2="903.4023"/><text fill="#000000" font-family="sans-serif" font-size="11" lengthAdjust="spacingAndGlyphs" textLength="55" x="242.5" y="906.7104">attributes</text><line style="stroke: #A80036; stroke-width: 1.5;" x1="297.5" x2="338.5" y1="903.4023" y2="903.4023"/><!--class Airline--><rect fill="#FEFECE" filter="url(#f12pvmvrkhxpbs)" height="120.8281" id="Airline" style="stroke: #A80036; stroke-width: 1.5;" width="308" x="375" y="876"/><ellipse cx="505.75" cy="892" fill="#ADD1B2" rx="11" ry="11" style="stroke: #A80036; stroke-width: 1.0;"/><path d="M508.7188,897.6406 Q508.1406,897.9375 507.5,898.0781 Q506.8594,898.2344 506.1563,898.2344 Q503.6563,898.2344 502.3281,896.5938 Q501.0156,894.9375 501.0156,891.8125 Q501.0156,888.6875 502.3281,887.0313 Q503.6563,885.375 506.1563,885.375 Q506.8594,885.375 507.5,885.5313 Q508.1563,885.6875 508.7188,885.9844 L508.7188,888.7031 Q508.0938,888.125 507.5,887.8594 Q506.9063,887.5781 506.2813,887.5781 Q504.9375,887.5781 504.25,888.6563 Q503.5625,889.7188 503.5625,891.8125 Q503.5625,893.9063 504.25,894.9844 Q504.9375,896.0469 506.2813,896.0469 Q506.9063,896.0469 507.5,895.7813 Q508.0938,895.5 508.7188,894.9219 L508.7188,897.6406 Z "/><text fill="#000000" font-family="sans-serif" font-size="12" lengthAdjust="spacingAndGlyphs" textLength="38" x="526.25" y="896.1543">Airline</text><line style="stroke: #A80036; stroke-width: 1.5;" x1="376" x2="682" y1="908" y2="908"/><rect fill="none" height="6" style="stroke: #C82930; stroke-width: 1.0;" width="6" x="383" y="932.8047"/><text fill="#000000" font-family="sans-serif" font-size="11" lengthAdjust="spacingAndGlyphs" textLength="32" x="395" y="939.0151">id: int</text><rect fill="none" height="6" style="stroke: #C82930; stroke-width: 1.0;" width="6" x="383" y="945.6094"/><text fill="#000000" font-family="sans-serif" font-size="11" lengthAdjust="spacingAndGlyphs" textLength="63" x="395" y="951.8198">iata: String</text><rect fill="none" height="6" style="stroke: #C82930; stroke-width: 1.0;" width="6" x="383" y="958.4141"/><text fill="#000000" font-family="sans-serif" font-size="11" lengthAdjust="spacingAndGlyphs" textLength="65" x="395" y="964.6245">icao: String</text><rect fill="none" height="6" style="stroke: #C82930; stroke-width: 1.0;" width="6" x="383" y="971.2188"/><text fill="#000000" font-family="sans-serif" font-size="11" lengthAdjust="spacingAndGlyphs" textLength="74" x="395" y="977.4292">name: String</text><text fill="#000000" font-family="sans-serif" font-size="11" lengthAdjust="spacingAndGlyphs" textLength="282" x="395" y="990.2339">// more properties, like calculator, restriction etc.</text><line style="stroke: #A80036; stroke-width: 1.5;" x1="376" x2="501.5" y1="922.4023" y2="922.4023"/><text fill="#000000" font-family="sans-serif" font-size="11" lengthAdjust="spacingAndGlyphs" textLength="55" x="501.5" y="925.7104">attributes</text><line style="stroke: #A80036; stroke-width: 1.5;" x1="556.5" x2="682" y1="922.4023" y2="922.4023"/><!--class Route--><rect fill="#FEFECE" filter="url(#f12pvmvrkhxpbs)" height="108.0234" id="Route" style="stroke: #A80036; stroke-width: 1.5;" width="213" x="382.5" y="447"/><ellipse cx="466.25" cy="463" fill="#ADD1B2" rx="11" ry="11" style="stroke: #A80036; stroke-width: 1.0;"/><path d="M469.2188,468.6406 Q468.6406,468.9375 468,469.0781 Q467.3594,469.2344 466.6563,469.2344 Q464.1563,469.2344 462.8281,467.5938 Q461.5156,465.9375 461.5156,462.8125 Q461.5156,459.6875 462.8281,458.0313 Q464.1563,456.375 466.6563,456.375 Q467.3594,456.375 468,456.5313 Q468.6563,456.6875 469.2188,456.9844 L469.2188,459.7031 Q468.5938,459.125 468,458.8594 Q467.4063,458.5781 466.7813,458.5781 Q465.4375,458.5781 464.75,459.6563 Q464.0625,460.7188 464.0625,462.8125 Q464.0625,464.9063 464.75,465.9844 Q465.4375,467.0469 466.7813,467.0469 Q467.4063,467.0469 468,466.7813 Q468.5938,466.5 469.2188,465.9219 L469.2188,468.6406 Z "/><text fill="#000000" font-family="sans-serif" font-size="12" lengthAdjust="spacingAndGlyphs" textLength="37" x="486.75" y="467.1543">Route</text><line style="stroke: #A80036; stroke-width: 1.5;" x1="383.5" x2="594.5" y1="479" y2="479"/><rect fill="none" height="6" style="stroke: #C82930; stroke-width: 1.0;" width="6" x="390.5" y="503.8047"/><text fill="#000000" font-family="sans-serif" font-size="11" lengthAdjust="spacingAndGlyphs" textLength="62" x="402.5" y="510.0151">routeId: int</text><rect fill="none" height="6" style="stroke: #C82930; stroke-width: 1.0;" width="6" x="390.5" y="516.6094"/><text fill="#000000" font-family="sans-serif" font-size="11" lengthAdjust="spacingAndGlyphs" textLength="127" x="402.5" y="522.8198">srcAirportCode: String</text><rect fill="none" height="6" style="stroke: #C82930; stroke-width: 1.0;" width="6" x="390.5" y="529.4141"/><text fill="#000000" font-family="sans-serif" font-size="11" lengthAdjust="spacingAndGlyphs" textLength="127" x="402.5" y="535.6245">dstAirportCode: String</text><rect fill="none" height="6" style="stroke: #C82930; stroke-width: 1.0;" width="6" x="390.5" y="542.2188"/><text fill="#000000" font-family="sans-serif" font-size="11" lengthAdjust="spacingAndGlyphs" textLength="187" x="402.5" y="548.4292">connections: Array&lt;Connection&gt;</text><line style="stroke: #A80036; stroke-width: 1.5;" x1="383.5" x2="461.5" y1="493.4023" y2="493.4023"/><text fill="#000000" font-family="sans-serif" font-size="11" lengthAdjust="spacingAndGlyphs" textLength="55" x="461.5" y="496.7104">attributes</text><line style="stroke: #A80036; stroke-width: 1.5;" x1="516.5" x2="594.5" y1="493.4023" y2="493.4023"/><!--class Connection--><rect fill="#FEFECE" filter="url(#f12pvmvrkhxpbs)" height="108.0234" id="Connection" style="stroke: #A80036; stroke-width: 1.5;" width="124" x="244" y="628"/><ellipse cx="268.45" cy="644" fill="#ADD1B2" rx="11" ry="11" style="stroke: #A80036; stroke-width: 1.0;"/><path d="M271.4188,649.6406 Q270.8406,649.9375 270.2,650.0781 Q269.5594,650.2344 268.8563,650.2344 Q266.3563,650.2344 265.0281,648.5938 Q263.7156,646.9375 263.7156,643.8125 Q263.7156,640.6875 265.0281,639.0313 Q266.3563,637.375 268.8563,637.375 Q269.5594,637.375 270.2,637.5313 Q270.8563,637.6875 271.4188,637.9844 L271.4188,640.7031 Q270.7938,640.125 270.2,639.8594 Q269.6063,639.5781 268.9813,639.5781 Q267.6375,639.5781 266.95,640.6563 Q266.2625,641.7188 266.2625,643.8125 Q266.2625,645.9063 266.95,646.9844 Q267.6375,648.0469 268.9813,648.0469 Q269.6063,648.0469 270.2,647.7813 Q270.7938,647.5 271.4188,646.9219 L271.4188,649.6406 Z "/><text fill="#000000" font-family="sans-serif" font-size="12" lengthAdjust="spacingAndGlyphs" textLength="71" x="284.55" y="648.1543">Connection</text><line style="stroke: #A80036; stroke-width: 1.5;" x1="245" x2="367" y1="660" y2="660"/><rect fill="none" height="6" style="stroke: #C82930; stroke-width: 1.0;" width="6" x="252" y="684.8047"/><text fill="#000000" font-family="sans-serif" font-size="11" lengthAdjust="spacingAndGlyphs" textLength="93" x="264" y="691.0151">connectionId: int</text><rect fill="none" height="6" style="stroke: #C82930; stroke-width: 1.0;" width="6" x="252" y="697.6094"/><text fill="#000000" font-family="sans-serif" font-size="11" lengthAdjust="spacingAndGlyphs" textLength="77" x="264" y="703.8198">airline: String</text><rect fill="none" height="6" style="stroke: #C82930; stroke-width: 1.0;" width="6" x="252" y="710.4141"/><text fill="#000000" font-family="sans-serif" font-size="11" lengthAdjust="spacingAndGlyphs" textLength="98" x="264" y="716.6245">srcAirport: String</text><rect fill="none" height="6" style="stroke: #C82930; stroke-width: 1.0;" width="6" x="252" y="723.2188"/><text fill="#000000" font-family="sans-serif" font-size="11" lengthAdjust="spacingAndGlyphs" textLength="98" x="264" y="729.4292">dstAirport: String</text><line style="stroke: #A80036; stroke-width: 1.5;" x1="245" x2="278.5" y1="674.4023" y2="674.4023"/><text fill="#000000" font-family="sans-serif" font-size="11" lengthAdjust="spacingAndGlyphs" textLength="55" x="278.5" y="677.7104">attributes</text><line style="stroke: #A80036; stroke-width: 1.5;" x1="333.5" x2="367" y1="674.4023" y2="674.4023"/><!--class Flight--><rect fill="#FEFECE" filter="url(#f12pvmvrkhxpbs)" height="120.8281" id="Flight" style="stroke: #A80036; stroke-width: 1.5;" width="158" x="6" y="440.5"/><ellipse cx="63.75" cy="456.5" fill="#ADD1B2" rx="11" ry="11" style="stroke: #A80036; stroke-width: 1.0;"/><path d="M66.7188,462.1406 Q66.1406,462.4375 65.5,462.5781 Q64.8594,462.7344 64.1563,462.7344 Q61.6563,462.7344 60.3281,461.0938 Q59.0156,459.4375 59.0156,456.3125 Q59.0156,453.1875 60.3281,451.5313 Q61.6563,449.875 64.1563,449.875 Q64.8594,449.875 65.5,450.0313 Q66.1563,450.1875 66.7188,450.4844 L66.7188,453.2031 Q66.0938,452.625 65.5,452.3594 Q64.9063,452.0781 64.2813,452.0781 Q62.9375,452.0781 62.25,453.1563 Q61.5625,454.2188 61.5625,456.3125 Q61.5625,458.4063 62.25,459.4844 Q62.9375,460.5469 64.2813,460.5469 Q64.9063,460.5469 65.5,460.2813 Q66.0938,460 66.7188,459.4219 L66.7188,462.1406 Z "/><text fill="#000000" font-family="sans-serif" font-size="12" lengthAdjust="spacingAndGlyphs" textLength="34" x="84.25" y="460.6543">Flight</text><line style="stroke: #A80036; stroke-width: 1.5;" x1="7" x2="163" y1="472.5" y2="472.5"/><rect fill="none" height="6" style="stroke: #C82930; stroke-width: 1.0;" width="6" x="14" y="497.3047"/><text fill="#000000" font-family="sans-serif" font-size="11" lengthAdjust="spacingAndGlyphs" textLength="60" x="26" y="503.5151">flightId: int</text><rect fill="none" height="6" style="stroke: #C82930; stroke-width: 1.0;" width="6" x="14" y="510.1094"/><text fill="#000000" font-family="sans-serif" font-size="11" lengthAdjust="spacingAndGlyphs" textLength="132" x="26" y="516.3198">connection: Connection</text><rect fill="none" height="6" style="stroke: #C82930; stroke-width: 1.0;" width="6" x="14" y="522.9141"/><text fill="#000000" font-family="sans-serif" font-size="11" lengthAdjust="spacingAndGlyphs" textLength="108" x="26" y="529.1245">peopleCapacity: int</text><rect fill="none" height="6" style="stroke: #C82930; stroke-width: 1.0;" width="6" x="14" y="535.7188"/><text fill="#000000" font-family="sans-serif" font-size="11" lengthAdjust="spacingAndGlyphs" textLength="116" x="26" y="541.9292">departureDate: Date</text><rect fill="none" height="6" style="stroke: #C82930; stroke-width: 1.0;" width="6" x="14" y="548.5234"/><text fill="#000000" font-family="sans-serif" font-size="11" lengthAdjust="spacingAndGlyphs" textLength="96" x="26" y="554.7339">arrivalDate: Date</text><line style="stroke: #A80036; stroke-width: 1.5;" x1="7" x2="57.5" y1="486.9023" y2="486.9023"/><text fill="#000000" font-family="sans-serif" font-size="11" lengthAdjust="spacingAndGlyphs" textLength="55" x="57.5" y="490.2104">attributes</text><line style="stroke: #A80036; stroke-width: 1.5;" x1="112.5" x2="163" y1="486.9023" y2="486.9023"/><!--class Ticket--><rect fill="#FEFECE" filter="url(#f12pvmvrkhxpbs)" height="172.0469" id="Ticket" style="stroke: #A80036; stroke-width: 1.5;" width="181" x="88.5" y="202"/><ellipse cx="156.25" cy="218" fill="#ADD1B2" rx="11" ry="11" style="stroke: #A80036; stroke-width: 1.0;"/><path d="M159.2188,223.6406 Q158.6406,223.9375 158,224.0781 Q157.3594,224.2344 156.6563,224.2344 Q154.1563,224.2344 152.8281,222.5938 Q151.5156,220.9375 151.5156,217.8125 Q151.5156,214.6875 152.8281,213.0313 Q154.1563,211.375 156.6563,211.375 Q157.3594,211.375 158,211.5313 Q158.6563,211.6875 159.2188,211.9844 L159.2188,214.7031 Q158.5938,214.125 158,213.8594 Q157.4063,213.5781 156.7813,213.5781 Q155.4375,213.5781 154.75,214.6563 Q154.0625,215.7188 154.0625,217.8125 Q154.0625,219.9063 154.75,220.9844 Q155.4375,222.0469 156.7813,222.0469 Q157.4063,222.0469 158,221.7813 Q158.5938,221.5 159.2188,220.9219 L159.2188,223.6406 Z "/><text fill="#000000" font-family="sans-serif" font-size="12" lengthAdjust="spacingAndGlyphs" textLength="37" x="176.75" y="222.1543">Ticket</text><line style="stroke: #A80036; stroke-width: 1.5;" x1="89.5" x2="268.5" y1="234" y2="234"/><rect fill="none" height="6" style="stroke: #C82930; stroke-width: 1.0;" width="6" x="96.5" y="258.8047"/><text fill="#000000" font-family="sans-serif" font-size="11" lengthAdjust="spacingAndGlyphs" textLength="62" x="108.5" y="265.0151">ticketId: int</text><rect fill="none" height="6" style="stroke: #C82930; stroke-width: 1.0;" width="6" x="96.5" y="271.6094"/><text fill="#000000" font-family="sans-serif" font-size="11" lengthAdjust="spacingAndGlyphs" textLength="66" x="108.5" y="277.8198">flight: Flight</text><rect fill="none" height="6" style="stroke: #C82930; stroke-width: 1.0;" width="6" x="96.5" y="284.4141"/><text fill="#000000" font-family="sans-serif" font-size="11" lengthAdjust="spacingAndGlyphs" textLength="130" x="108.5" y="290.6245">passenger: Passenger</text><rect fill="none" height="6" style="stroke: #C82930; stroke-width: 1.0;" width="6" x="96.5" y="297.2188"/><text fill="#000000" font-family="sans-serif" font-size="11" lengthAdjust="spacingAndGlyphs" textLength="113" x="108.5" y="303.4292">purchaseDate: Date</text><rect fill="none" height="6" style="stroke: #C82930; stroke-width: 1.0;" width="6" x="96.5" y="310.0234"/><text fill="#000000" font-family="sans-serif" font-size="11" lengthAdjust="spacingAndGlyphs" textLength="102" x="108.5" y="316.2339">flightClass: String</text><rect fill="none" height="6" style="stroke: #C82930; stroke-width: 1.0;" width="6" x="96.5" y="322.8281"/><text fill="#000000" font-family="sans-serif" font-size="11" lengthAdjust="spacingAndGlyphs" textLength="92" x="108.5" y="329.0386">seatNumber: int</text><rect fill="none" height="6" style="stroke: #C82930; stroke-width: 1.0;" width="6" x="96.5" y="335.6328"/><text fill="#000000" font-family="sans-serif" font-size="11" lengthAdjust="spacingAndGlyphs" textLength="155" x="108.5" y="341.8433">maxLuggageWeight: double</text><rect fill="none" height="6" style="stroke: #C82930; stroke-width: 1.0;" width="6" x="96.5" y="348.4375"/><text fill="#000000" font-family="sans-serif" font-size="11" lengthAdjust="spacingAndGlyphs" textLength="64" x="108.5" y="354.6479">price: Price</text><text fill="#000000" font-family="sans-serif" font-size="11" lengthAdjust="spacingAndGlyphs" textLength="155" x="108.5" y="367.4526">// maybe more parameters</text><line style="stroke: #A80036; stroke-width: 1.5;" x1="89.5" x2="151.5" y1="248.4023" y2="248.4023"/><text fill="#000000" font-family="sans-serif" font-size="11" lengthAdjust="spacingAndGlyphs" textLength="55" x="151.5" y="251.7104">attributes</text><line style="stroke: #A80036; stroke-width: 1.5;" x1="206.5" x2="268.5" y1="248.4023" y2="248.4023"/><!--class Passenger--><rect fill="#FEFECE" filter="url(#f12pvmvrkhxpbs)" height="133.6328" id="Passenger" style="stroke: #A80036; stroke-width: 1.5;" width="148" x="199" y="434"/><ellipse cx="236.05" cy="450" fill="#ADD1B2" rx="11" ry="11" style="stroke: #A80036; stroke-width: 1.0;"/><path d="M239.0188,455.6406 Q238.4406,455.9375 237.8,456.0781 Q237.1594,456.2344 236.4563,456.2344 Q233.9563,456.2344 232.6281,454.5938 Q231.3156,452.9375 231.3156,449.8125 Q231.3156,446.6875 232.6281,445.0313 Q233.9563,443.375 236.4563,443.375 Q237.1594,443.375 237.8,443.5313 Q238.4563,443.6875 239.0188,443.9844 L239.0188,446.7031 Q238.3938,446.125 237.8,445.8594 Q237.2063,445.5781 236.5813,445.5781 Q235.2375,445.5781 234.55,446.6563 Q233.8625,447.7188 233.8625,449.8125 Q233.8625,451.9063 234.55,452.9844 Q235.2375,454.0469 236.5813,454.0469 Q237.2063,454.0469 237.8,453.7813 Q238.3938,453.5 239.0188,452.9219 L239.0188,455.6406 Z "/><text fill="#000000" font-family="sans-serif" font-size="12" lengthAdjust="spacingAndGlyphs" textLength="67" x="254.95" y="454.1543">Passenger</text><line style="stroke: #A80036; stroke-width: 1.5;" x1="200" x2="346" y1="466" y2="466"/><rect fill="none" height="6" style="stroke: #C82930; stroke-width: 1.0;" width="6" x="207" y="490.8047"/><text fill="#000000" font-family="sans-serif" font-size="11" lengthAdjust="spacingAndGlyphs" textLength="97" x="219" y="497.0151">firstname: String</text><rect fill="none" height="6" style="stroke: #C82930; stroke-width: 1.0;" width="6" x="207" y="503.6094"/><text fill="#000000" font-family="sans-serif" font-size="11" lengthAdjust="spacingAndGlyphs" textLength="93" x="219" y="509.8198">surname: String</text><rect fill="none" height="6" style="stroke: #C82930; stroke-width: 1.0;" width="6" x="207" y="516.4141"/><text fill="#000000" font-family="sans-serif" font-size="11" lengthAdjust="spacingAndGlyphs" textLength="99" x="219" y="522.6245">dateOfBirth: Date</text><rect fill="none" height="6" style="stroke: #C82930; stroke-width: 1.0;" width="6" x="207" y="529.2188"/><text fill="#000000" font-family="sans-serif" font-size="11" lengthAdjust="spacingAndGlyphs" textLength="122" x="219" y="535.4292">phoneNumber: String</text><rect fill="none" height="6" style="stroke: #C82930; stroke-width: 1.0;" width="6" x="207" y="542.0234"/><text fill="#000000" font-family="sans-serif" font-size="11" lengthAdjust="spacingAndGlyphs" textLength="73" x="219" y="548.2339">email: String</text><rect fill="none" height="6" style="stroke: #C82930; stroke-width: 1.0;" width="6" x="207" y="554.8281"/><text fill="#000000" font-family="sans-serif" font-size="11" lengthAdjust="spacingAndGlyphs" textLength="97" x="219" y="561.0386">idOrPesel: String</text><line style="stroke: #A80036; stroke-width: 1.5;" x1="200" x2="245.5" y1="480.4023" y2="480.4023"/><text fill="#000000" font-family="sans-serif" font-size="11" lengthAdjust="spacingAndGlyphs" textLength="55" x="245.5" y="483.7104">attributes</text><line style="stroke: #A80036; stroke-width: 1.5;" x1="300.5" x2="346" y1="480.4023" y2="480.4023"/><!--class Trip--><rect fill="#FEFECE" filter="url(#f12pvmvrkhxpbs)" height="133.6328" id="Trip" style="stroke: #A80036; stroke-width: 1.5;" width="152" x="103" y="8"/><ellipse cx="163.25" cy="24" fill="#ADD1B2" rx="11" ry="11" style="stroke: #A80036; stroke-width: 1.0;"/><path d="M166.2188,29.6406 Q165.6406,29.9375 165,30.0781 Q164.3594,30.2344 163.6563,30.2344 Q161.1563,30.2344 159.8281,28.5938 Q158.5156,26.9375 158.5156,23.8125 Q158.5156,20.6875 159.8281,19.0313 Q161.1563,17.375 163.6563,17.375 Q164.3594,17.375 165,17.5313 Q165.6563,17.6875 166.2188,17.9844 L166.2188,20.7031 Q165.5938,20.125 165,19.8594 Q164.4063,19.5781 163.7813,19.5781 Q162.4375,19.5781 161.75,20.6563 Q161.0625,21.7188 161.0625,23.8125 Q161.0625,25.9063 161.75,26.9844 Q162.4375,28.0469 163.7813,28.0469 Q164.4063,28.0469 165,27.7813 Q165.5938,27.5 166.2188,26.9219 L166.2188,29.6406 Z "/><text fill="#000000" font-family="sans-serif" font-size="12" lengthAdjust="spacingAndGlyphs" textLength="23" x="183.75" y="28.1543">Trip</text><line style="stroke: #A80036; stroke-width: 1.5;" x1="104" x2="254" y1="40" y2="40"/><rect fill="none" height="6" style="stroke: #C82930; stroke-width: 1.0;" width="6" x="111" y="64.8047"/><text fill="#000000" font-family="sans-serif" font-size="11" lengthAdjust="spacingAndGlyphs" textLength="32" x="123" y="71.0151">id: int</text><rect fill="none" height="6" style="stroke: #C82930; stroke-width: 1.0;" width="6" x="111" y="77.6094"/><text fill="#000000" font-family="sans-serif" font-size="11" lengthAdjust="spacingAndGlyphs" textLength="118" x="123" y="83.8198">oneWayTrip: boolean</text><rect fill="none" height="6" style="stroke: #C82930; stroke-width: 1.0;" width="6" x="111" y="90.4141"/><text fill="#000000" font-family="sans-serif" font-size="11" lengthAdjust="spacingAndGlyphs" textLength="126" x="123" y="96.6245">tickets: Array&lt;Ticket&gt;</text><rect fill="none" height="6" style="stroke: #C82930; stroke-width: 1.0;" width="6" x="111" y="103.2188"/><text fill="#000000" font-family="sans-serif" font-size="11" lengthAdjust="spacingAndGlyphs" textLength="116" x="123" y="109.4292">departureDate: Date</text><rect fill="none" height="6" style="stroke: #C82930; stroke-width: 1.0;" width="6" x="111" y="116.0234"/><text fill="#000000" font-family="sans-serif" font-size="11" lengthAdjust="spacingAndGlyphs" textLength="96" x="123" y="122.2339">arrivalDate: Date</text><rect fill="none" height="6" style="stroke: #C82930; stroke-width: 1.0;" width="6" x="111" y="128.8281"/><text fill="#000000" font-family="sans-serif" font-size="11" lengthAdjust="spacingAndGlyphs" textLength="89" x="123" y="135.0386">totalPrice: Price</text><line style="stroke: #A80036; stroke-width: 1.5;" x1="104" x2="151.5" y1="54.4023" y2="54.4023"/><text fill="#000000" font-family="sans-serif" font-size="11" lengthAdjust="spacingAndGlyphs" textLength="55" x="151.5" y="57.7104">attributes</text><line style="stroke: #A80036; stroke-width: 1.5;" x1="206.5" x2="254" y1="54.4023" y2="54.4023"/><!--link Route to Airport--><path d="M467.156,555.4589 C447.3682,603.6042 416.6921,675.3971 386,736 C366.3508,774.7984 342.602,816.5971 321.7237,851.9374 " fill="none" id="Route-&gt;Airport" style="stroke: #A80036; stroke-width: 1.0; stroke-dasharray: 7.0,7.0;"/><polygon fill="#A80036" points="318.9295,856.6576,326.9563,850.9505,321.4765,852.355,320.0721,846.8752,318.9295,856.6576" style="stroke: #A80036; stroke-width: 1.0;"/><!--link Route to Airline--><path d="M493.9852,555.2758 C501.3362,635.3107 515.0649,784.7814 522.9717,870.8668 " fill="none" id="Route-&gt;Airline" style="stroke: #A80036; stroke-width: 1.0; stroke-dasharray: 7.0,7.0;"/><polygon fill="#A80036" points="523.4372,875.9349,526.597,866.6067,522.9798,870.9559,518.6306,867.3386,523.4372,875.9349" style="stroke: #A80036; stroke-width: 1.0;"/><!--reverse link Route to Connection--><path d="M424.6848,564.6123 C403.8511,585.2183 380.9493,607.8698 360.8673,627.7324 " fill="none" id="Route&lt;-Connection" style="stroke: #A80036; stroke-width: 1.0;"/><polygon fill="#FFFFFF" points="434.094,555.306,427.0153,556.6813,425.5622,563.7445,432.641,562.3692,434.094,555.306" style="stroke: #A80036; stroke-width: 1.0;"/><!--link Connection to Airline--><path d="M353.5656,736.2845 C388.3326,775.9625 435.6255,829.9359 472.3481,871.8457 " fill="none" id="Connection-&gt;Airline" style="stroke: #A80036; stroke-width: 1.0; stroke-dasharray: 7.0,7.0;"/><polygon fill="#A80036" points="475.6435,875.6066,472.7209,866.2014,472.3484,871.846,466.7038,871.4735,475.6435,875.6066" style="stroke: #A80036; stroke-width: 1.0;"/><!--link Connection to Airport--><path d="M298.3213,736.2845 C293.5782,769.8152 287.3911,813.5549 282.01,851.5958 " fill="none" id="Connection-&gt;Airport" style="stroke: #A80036; stroke-width: 1.0; stroke-dasharray: 7.0,7.0;"/><polygon fill="#A80036" points="281.2903,856.6838,286.5116,848.3329,281.9907,851.7331,278.5905,847.2122,281.2903,856.6838" style="stroke: #A80036; stroke-width: 1.0;"/><!--reverse link Flight to Connection--><path d="M169.0626,569.8476 C193.9532,590.2331 220.7451,612.1758 243.9729,631.1996 " fill="none" id="Flight&lt;-Connection" style="stroke: #A80036; stroke-width: 1.0;"/><polygon fill="#FFFFFF" points="158.8971,561.522,161.0045,568.4183,168.1809,569.1254,166.0735,562.2291,158.8971,561.522" style="stroke: #A80036; stroke-width: 1.0;"/><!--reverse link Ticket to Flight--><path d="M135.6937,386.1302 C127.5129,404.6676 119.1819,423.5452 111.7004,440.498 " fill="none" id="Ticket&lt;-Flight" style="stroke: #A80036; stroke-width: 1.0;"/><polygon fill="#FFFFFF" points="141.0376,374.0213,134.9556,377.8956,136.1927,384.9998,142.2746,381.1255,141.0376,374.0213" style="stroke: #A80036; stroke-width: 1.0;"/><!--reverse link Ticket to Passenger--><path d="M222.3777,386.2921 C229.502,402.4355 236.738,418.8318 243.4256,433.9857 " fill="none" id="Ticket&lt;-Passenger" style="stroke: #A80036; stroke-width: 1.0;"/><polygon fill="#A80036" points="216.9624,374.0213,215.7254,381.1255,221.8073,384.9998,223.0444,377.8956,216.9624,374.0213" style="stroke: #A80036; stroke-width: 1.0;"/><!--reverse link Trip to Ticket--><path d="M179,155.2121 C179,170.3912 179,186.3303 179,201.688 " fill="none" id="Trip&lt;-Ticket" style="stroke: #A80036; stroke-width: 1.0;"/><polygon fill="#A80036" points="179,142.1022,175,148.1022,179,154.1022,183,148.1022,179,142.1022" style="stroke: #A80036; stroke-width: 1.0;"/><!--
@startuml entities

class Airport {
  __ attributes __
  - id: int
  - iata: String
  - icao: String
  - airportName: String
  - city: String
  - country: String
  - coordinates: Point
  - timezone: int
}

class Airline {
  __ attributes __
  - id: int
  - iata: String
  - icao: String
  - name: String
  // more properties, like calculator, restriction etc.
}

class Route {
  __ attributes __
  - routeId: int
  - srcAirportCode: String
  - dstAirportCode: String
  - connections: Array<Connection>
}

class Connection {
  __ attributes __
  - connectionId: int
  - airline: String
  - srcAirport: String
  - dstAirport: String
}

class Flight {
  __ attributes __
  - flightId: int
  - connection: Connection
  - peopleCapacity: int
  - departureDate: Date
  - arrivalDate: Date
}

class Ticket {
  __ attributes __
  - ticketId: int
  - flight: Flight
  - passenger: Passenger
  - purchaseDate: Date
  - flightClass: String
  - seatNumber: int
  - maxLuggageWeight: double
  - price: Price
  // maybe more parameters
}

class Passenger {
  __ attributes __
  -firstname: String
  -surname: String
  -dateOfBirth: Date
  -phoneNumber: String
  -email: String
  -idOrPesel: String
}

class Trip {
  __ attributes __
  - id: int
  - oneWayTrip: boolean
  - tickets: Array<Ticket>
  - departureDate: Date
  - arrivalDate: Date
  - totalPrice: Price
}

Route - -.> Airport
Route - -.> Airline
Route o- - Connection
Connection - -.> Airline
Connection - -.> Airport
Flight o- - Connection
Ticket o- - Flight
Ticket *- - Passenger
Trip *- - Ticket

@enduml

PlantUML version 1.2019.09(Mon Aug 26 18:19:51 CEST 2019)
(GPL source distribution)
Java Runtime: OpenJDK Runtime Environment
JVM: OpenJDK 64-Bit Server VM
Java Version: 1.8.0_252-8u252-b09-1~18.04-b09
Operating System: Linux
OS Version: 4.15.0-99-generic
Default Encoding: UTF-8
Language: pl
Country: PL
--></g></svg>