<?xml version="1.0" encoding="UTF-8" standalone="no"?><svg xmlns="http://www.w3.org/2000/svg" xmlns:xlink="http://www.w3.org/1999/xlink" contentScriptType="application/ecmascript" contentStyleType="text/css" height="1162px" preserveAspectRatio="none" style="width:434px;height:1162px;" version="1.1" viewBox="0 0 434 1162" width="434px" zoomAndPan="magnify"><defs><filter height="300%" id="f1e7iexdwir2l3" width="300%" x="-1" y="-1"><feGaussianBlur result="blurOut" stdDeviation="2.0"/><feColorMatrix in="blurOut" result="blurOut2" type="matrix" values="0 0 0 0 0 0 0 0 0 0 0 0 0 0 0 0 0 0 .4 0"/><feOffset dx="4.0" dy="4.0" in="blurOut2" result="blurOut3"/><feBlend in="SourceGraphic" in2="blurOut3" mode="normal"/></filter></defs><g><!--MD5=[ffe09eff7e904b42cb9ab485252a98fc]
class Airport--><rect fill="#FEFECE" filter="url(#f1e7iexdwir2l3)" height="146.4375" id="Airport" style="stroke: #A80036; stroke-width: 1.5;" width="125" x="7" y="997"/><ellipse cx="45.4" cy="1013" fill="#ADD1B2" rx="11" ry="11" style="stroke: #A80036; stroke-width: 1.0;"/><path d="M47.7438,1008.6719 C46.8063,1008.2344 46.2125,1008.0938 45.3375,1008.0938 C42.7125,1008.0938 40.7125,1010.1719 40.7125,1012.8906 L40.7125,1014.0156 C40.7125,1016.5938 42.8219,1018.4844 45.7125,1018.4844 C46.9313,1018.4844 48.0875,1018.1875 48.8375,1017.6406 C49.4156,1017.2344 49.7438,1016.7813 49.7438,1016.3906 C49.7438,1015.9375 49.3531,1015.5469 48.8844,1015.5469 C48.6656,1015.5469 48.4625,1015.625 48.275,1015.8125 C47.8219,1016.2969 47.8219,1016.2969 47.6344,1016.3906 C47.2125,1016.6563 46.525,1016.7813 45.7594,1016.7813 C43.7125,1016.7813 42.4156,1015.6875 42.4156,1013.9844 L42.4156,1012.8906 C42.4156,1011.1094 43.6656,1009.7969 45.4,1009.7969 C45.9781,1009.7969 46.5875,1009.9531 47.0563,1010.2031 C47.5406,1010.4844 47.7125,1010.7031 47.8063,1011.1094 C47.8688,1011.5156 47.9,1011.6406 48.0406,1011.7656 C48.1813,1011.9063 48.4156,1012.0156 48.6344,1012.0156 C48.9,1012.0156 49.1656,1011.875 49.3375,1011.6563 C49.4469,1011.5 49.4781,1011.3125 49.4781,1010.8906 L49.4781,1009.4688 C49.4781,1009.0313 49.4625,1008.9063 49.3688,1008.75 C49.2125,1008.4844 48.9313,1008.3438 48.6344,1008.3438 C48.3375,1008.3438 48.1344,1008.4375 47.9156,1008.75 L47.7438,1008.6719 Z "/><text fill="#000000" font-family="sans-serif" font-size="12" lengthAdjust="spacingAndGlyphs" textLength="41" x="64.6" y="1017.1543">Airport</text><line style="stroke: #A80036; stroke-width: 1.5;" x1="8" x2="131" y1="1029" y2="1029"/><rect fill="none" height="6" style="stroke: #C82930; stroke-width: 1.0;" width="6" x="15" y="1053.8047"/><text fill="#000000" font-family="sans-serif" font-size="11" lengthAdjust="spacingAndGlyphs" textLength="44" x="27" y="1060.0151">id: Long</text><rect fill="none" height="6" style="stroke: #C82930; stroke-width: 1.0;" width="6" x="15" y="1066.6094"/><text fill="#000000" font-family="sans-serif" font-size="11" lengthAdjust="spacingAndGlyphs" textLength="73" x="27" y="1072.8198">name: String</text><rect fill="none" height="6" style="stroke: #C82930; stroke-width: 1.0;" width="6" x="15" y="1079.4141"/><text fill="#000000" font-family="sans-serif" font-size="11" lengthAdjust="spacingAndGlyphs" textLength="60" x="27" y="1085.6245">city: String</text><rect fill="none" height="6" style="stroke: #C82930; stroke-width: 1.0;" width="6" x="15" y="1092.2188"/><text fill="#000000" font-family="sans-serif" font-size="11" lengthAdjust="spacingAndGlyphs" textLength="82" x="27" y="1098.4292">country: String</text><rect fill="none" height="6" style="stroke: #C82930; stroke-width: 1.0;" width="6" x="15" y="1105.0234"/><text fill="#000000" font-family="sans-serif" font-size="11" lengthAdjust="spacingAndGlyphs" textLength="99" x="27" y="1111.2339">longitude: double</text><rect fill="none" height="6" style="stroke: #C82930; stroke-width: 1.0;" width="6" x="15" y="1117.8281"/><text fill="#000000" font-family="sans-serif" font-size="11" lengthAdjust="spacingAndGlyphs" textLength="89" x="27" y="1124.0386">latitude: double</text><rect fill="none" height="6" style="stroke: #C82930; stroke-width: 1.0;" width="6" x="15" y="1130.6328"/><text fill="#000000" font-family="sans-serif" font-size="11" lengthAdjust="spacingAndGlyphs" textLength="76" x="27" y="1136.8433">timezone: int</text><line style="stroke: #A80036; stroke-width: 1.5;" x1="8" x2="42.5" y1="1043.4023" y2="1043.4023"/><text fill="#000000" font-family="sans-serif" font-size="11" lengthAdjust="spacingAndGlyphs" textLength="54" x="42.5" y="1046.7104">attributes</text><line style="stroke: #A80036; stroke-width: 1.5;" x1="96.5" x2="131" y1="1043.4023" y2="1043.4023"/><!--MD5=[29a2f04f72d5d666178ac7af56ef55cc]
class Airline--><rect fill="#FEFECE" filter="url(#f1e7iexdwir2l3)" height="95.2188" id="Airline" style="stroke: #A80036; stroke-width: 1.5;" width="108" x="167.5" y="1022.5"/><ellipse cx="200.05" cy="1038.5" fill="#ADD1B2" rx="11" ry="11" style="stroke: #A80036; stroke-width: 1.0;"/><path d="M202.3938,1034.1719 C201.4563,1033.7344 200.8625,1033.5938 199.9875,1033.5938 C197.3625,1033.5938 195.3625,1035.6719 195.3625,1038.3906 L195.3625,1039.5156 C195.3625,1042.0938 197.4719,1043.9844 200.3625,1043.9844 C201.5813,1043.9844 202.7375,1043.6875 203.4875,1043.1406 C204.0656,1042.7344 204.3938,1042.2813 204.3938,1041.8906 C204.3938,1041.4375 204.0031,1041.0469 203.5344,1041.0469 C203.3156,1041.0469 203.1125,1041.125 202.925,1041.3125 C202.4719,1041.7969 202.4719,1041.7969 202.2844,1041.8906 C201.8625,1042.1563 201.175,1042.2813 200.4094,1042.2813 C198.3625,1042.2813 197.0656,1041.1875 197.0656,1039.4844 L197.0656,1038.3906 C197.0656,1036.6094 198.3156,1035.2969 200.05,1035.2969 C200.6281,1035.2969 201.2375,1035.4531 201.7063,1035.7031 C202.1906,1035.9844 202.3625,1036.2031 202.4563,1036.6094 C202.5188,1037.0156 202.55,1037.1406 202.6906,1037.2656 C202.8313,1037.4063 203.0656,1037.5156 203.2844,1037.5156 C203.55,1037.5156 203.8156,1037.375 203.9875,1037.1563 C204.0969,1037 204.1281,1036.8125 204.1281,1036.3906 L204.1281,1034.9688 C204.1281,1034.5313 204.1125,1034.4063 204.0188,1034.25 C203.8625,1033.9844 203.5813,1033.8438 203.2844,1033.8438 C202.9875,1033.8438 202.7844,1033.9375 202.5656,1034.25 L202.3938,1034.1719 Z "/><text fill="#000000" font-family="sans-serif" font-size="12" lengthAdjust="spacingAndGlyphs" textLength="37" x="217.95" y="1042.6543">Airline</text><line style="stroke: #A80036; stroke-width: 1.5;" x1="168.5" x2="274.5" y1="1054.5" y2="1054.5"/><rect fill="none" height="6" style="stroke: #C82930; stroke-width: 1.0;" width="6" x="175.5" y="1079.3047"/><text fill="#000000" font-family="sans-serif" font-size="11" lengthAdjust="spacingAndGlyphs" textLength="44" x="187.5" y="1085.5151">id: Long</text><rect fill="none" height="6" style="stroke: #C82930; stroke-width: 1.0;" width="6" x="175.5" y="1092.1094"/><text fill="#000000" font-family="sans-serif" font-size="11" lengthAdjust="spacingAndGlyphs" textLength="73" x="187.5" y="1098.3198">name: String</text><rect fill="none" height="6" style="stroke: #C82930; stroke-width: 1.0;" width="6" x="175.5" y="1104.9141"/><text fill="#000000" font-family="sans-serif" font-size="11" lengthAdjust="spacingAndGlyphs" textLength="82" x="187.5" y="1111.1245">country: String</text><line style="stroke: #A80036; stroke-width: 1.5;" x1="168.5" x2="194.5" y1="1068.9023" y2="1068.9023"/><text fill="#000000" font-family="sans-serif" font-size="11" lengthAdjust="spacingAndGlyphs" textLength="54" x="194.5" y="1072.2104">attributes</text><line style="stroke: #A80036; stroke-width: 1.5;" x1="248.5" x2="274.5" y1="1068.9023" y2="1068.9023"/><!--MD5=[ad510ca42d1a057b37ac2813b8ee5b40]
class Connection--><rect fill="#FEFECE" filter="url(#f1e7iexdwir2l3)" height="120.8281" id="Connection" style="stroke: #A80036; stroke-width: 1.5;" width="203" x="44" y="755"/><ellipse cx="107.75" cy="771" fill="#ADD1B2" rx="11" ry="11" style="stroke: #A80036; stroke-width: 1.0;"/><path d="M110.0938,766.6719 C109.1563,766.2344 108.5625,766.0938 107.6875,766.0938 C105.0625,766.0938 103.0625,768.1719 103.0625,770.8906 L103.0625,772.0156 C103.0625,774.5938 105.1719,776.4844 108.0625,776.4844 C109.2813,776.4844 110.4375,776.1875 111.1875,775.6406 C111.7656,775.2344 112.0938,774.7813 112.0938,774.3906 C112.0938,773.9375 111.7031,773.5469 111.2344,773.5469 C111.0156,773.5469 110.8125,773.625 110.625,773.8125 C110.1719,774.2969 110.1719,774.2969 109.9844,774.3906 C109.5625,774.6563 108.875,774.7813 108.1094,774.7813 C106.0625,774.7813 104.7656,773.6875 104.7656,771.9844 L104.7656,770.8906 C104.7656,769.1094 106.0156,767.7969 107.75,767.7969 C108.3281,767.7969 108.9375,767.9531 109.4063,768.2031 C109.8906,768.4844 110.0625,768.7031 110.1563,769.1094 C110.2188,769.5156 110.25,769.6406 110.3906,769.7656 C110.5313,769.9063 110.7656,770.0156 110.9844,770.0156 C111.25,770.0156 111.5156,769.875 111.6875,769.6563 C111.7969,769.5 111.8281,769.3125 111.8281,768.8906 L111.8281,767.4688 C111.8281,767.0313 111.8125,766.9063 111.7188,766.75 C111.5625,766.4844 111.2813,766.3438 110.9844,766.3438 C110.6875,766.3438 110.4844,766.4375 110.2656,766.75 L110.0938,766.6719 Z "/><text fill="#000000" font-family="sans-serif" font-size="12" lengthAdjust="spacingAndGlyphs" textLength="67" x="128.25" y="775.1543">Connection</text><line style="stroke: #A80036; stroke-width: 1.5;" x1="45" x2="246" y1="787" y2="787"/><rect fill="none" height="6" style="stroke: #C82930; stroke-width: 1.0;" width="6" x="52" y="811.8047"/><text fill="#000000" font-family="sans-serif" font-size="11" lengthAdjust="spacingAndGlyphs" textLength="44" x="64" y="818.0151">id: Long</text><rect fill="none" height="6" style="stroke: #C82930; stroke-width: 1.0;" width="6" x="52" y="824.6094"/><text fill="#000000" font-family="sans-serif" font-size="11" lengthAdjust="spacingAndGlyphs" textLength="97" x="64" y="830.8198">srcAirport: Airport</text><rect fill="none" height="6" style="stroke: #C82930; stroke-width: 1.0;" width="6" x="52" y="837.4141"/><text fill="#000000" font-family="sans-serif" font-size="11" lengthAdjust="spacingAndGlyphs" textLength="98" x="64" y="843.6245">dstAirport: Airport</text><rect fill="none" height="6" style="stroke: #C82930; stroke-width: 1.0;" width="6" x="52" y="850.2188"/><text fill="#000000" font-family="sans-serif" font-size="11" lengthAdjust="spacingAndGlyphs" textLength="177" x="64" y="856.4292">departureDate: LocalDateTime</text><rect fill="none" height="6" style="stroke: #C82930; stroke-width: 1.0;" width="6" x="52" y="863.0234"/><text fill="#000000" font-family="sans-serif" font-size="11" lengthAdjust="spacingAndGlyphs" textLength="156" x="64" y="869.2339">arrivalDate: LocalDateTime</text><line style="stroke: #A80036; stroke-width: 1.5;" x1="45" x2="118.5" y1="801.4023" y2="801.4023"/><text fill="#000000" font-family="sans-serif" font-size="11" lengthAdjust="spacingAndGlyphs" textLength="54" x="118.5" y="804.7104">attributes</text><line style="stroke: #A80036; stroke-width: 1.5;" x1="172.5" x2="246" y1="801.4023" y2="801.4023"/><!--MD5=[bd6e5d4dd3d7814cbdc3148d3ed1ec4b]
class Flight--><rect fill="#FEFECE" filter="url(#f1e7iexdwir2l3)" height="120.8281" id="Flight" style="stroke: #A80036; stroke-width: 1.5;" width="159" x="66" y="567.5"/><ellipse cx="125.25" cy="583.5" fill="#ADD1B2" rx="11" ry="11" style="stroke: #A80036; stroke-width: 1.0;"/><path d="M127.5938,579.1719 C126.6563,578.7344 126.0625,578.5938 125.1875,578.5938 C122.5625,578.5938 120.5625,580.6719 120.5625,583.3906 L120.5625,584.5156 C120.5625,587.0938 122.6719,588.9844 125.5625,588.9844 C126.7813,588.9844 127.9375,588.6875 128.6875,588.1406 C129.2656,587.7344 129.5938,587.2813 129.5938,586.8906 C129.5938,586.4375 129.2031,586.0469 128.7344,586.0469 C128.5156,586.0469 128.3125,586.125 128.125,586.3125 C127.6719,586.7969 127.6719,586.7969 127.4844,586.8906 C127.0625,587.1563 126.375,587.2813 125.6094,587.2813 C123.5625,587.2813 122.2656,586.1875 122.2656,584.4844 L122.2656,583.3906 C122.2656,581.6094 123.5156,580.2969 125.25,580.2969 C125.8281,580.2969 126.4375,580.4531 126.9063,580.7031 C127.3906,580.9844 127.5625,581.2031 127.6563,581.6094 C127.7188,582.0156 127.75,582.1406 127.8906,582.2656 C128.0313,582.4063 128.2656,582.5156 128.4844,582.5156 C128.75,582.5156 129.0156,582.375 129.1875,582.1563 C129.2969,582 129.3281,581.8125 129.3281,581.3906 L129.3281,579.9688 C129.3281,579.5313 129.3125,579.4063 129.2188,579.25 C129.0625,578.9844 128.7813,578.8438 128.4844,578.8438 C128.1875,578.8438 127.9844,578.9375 127.7656,579.25 L127.5938,579.1719 Z "/><text fill="#000000" font-family="sans-serif" font-size="12" lengthAdjust="spacingAndGlyphs" textLength="32" x="145.75" y="587.6543">Flight</text><line style="stroke: #A80036; stroke-width: 1.5;" x1="67" x2="224" y1="599.5" y2="599.5"/><rect fill="none" height="6" style="stroke: #C82930; stroke-width: 1.0;" width="6" x="74" y="624.3047"/><text fill="#000000" font-family="sans-serif" font-size="11" lengthAdjust="spacingAndGlyphs" textLength="44" x="86" y="630.5151">id: Long</text><rect fill="none" height="6" style="stroke: #C82930; stroke-width: 1.0;" width="6" x="74" y="637.1094"/><text fill="#000000" font-family="sans-serif" font-size="11" lengthAdjust="spacingAndGlyphs" textLength="133" x="86" y="643.3198">connection: Connection</text><rect fill="none" height="6" style="stroke: #C82930; stroke-width: 1.0;" width="6" x="74" y="649.9141"/><text fill="#000000" font-family="sans-serif" font-size="11" lengthAdjust="spacingAndGlyphs" textLength="78" x="86" y="656.1245">airline: Airline</text><rect fill="none" height="6" style="stroke: #C82930; stroke-width: 1.0;" width="6" x="74" y="662.7188"/><text fill="#000000" font-family="sans-serif" font-size="11" lengthAdjust="spacingAndGlyphs" textLength="98" x="86" y="668.9292">numberSeats: int</text><rect fill="none" height="6" style="stroke: #C82930; stroke-width: 1.0;" width="6" x="74" y="675.5234"/><text fill="#000000" font-family="sans-serif" font-size="11" lengthAdjust="spacingAndGlyphs" textLength="74" x="86" y="681.7339">price: double</text><line style="stroke: #A80036; stroke-width: 1.5;" x1="67" x2="118.5" y1="613.9023" y2="613.9023"/><text fill="#000000" font-family="sans-serif" font-size="11" lengthAdjust="spacingAndGlyphs" textLength="54" x="118.5" y="617.2104">attributes</text><line style="stroke: #A80036; stroke-width: 1.5;" x1="172.5" x2="224" y1="613.9023" y2="613.9023"/><!--MD5=[ac6bea31e13c94c7baa9ad18feb7405e]
class Ticket--><rect fill="#FEFECE" filter="url(#f1e7iexdwir2l3)" height="146.4375" id="Ticket" style="stroke: #A80036; stroke-width: 1.5;" width="199" x="142" y="355"/><ellipse cx="219.25" cy="371" fill="#ADD1B2" rx="11" ry="11" style="stroke: #A80036; stroke-width: 1.0;"/><path d="M221.5938,366.6719 C220.6563,366.2344 220.0625,366.0938 219.1875,366.0938 C216.5625,366.0938 214.5625,368.1719 214.5625,370.8906 L214.5625,372.0156 C214.5625,374.5938 216.6719,376.4844 219.5625,376.4844 C220.7813,376.4844 221.9375,376.1875 222.6875,375.6406 C223.2656,375.2344 223.5938,374.7813 223.5938,374.3906 C223.5938,373.9375 223.2031,373.5469 222.7344,373.5469 C222.5156,373.5469 222.3125,373.625 222.125,373.8125 C221.6719,374.2969 221.6719,374.2969 221.4844,374.3906 C221.0625,374.6563 220.375,374.7813 219.6094,374.7813 C217.5625,374.7813 216.2656,373.6875 216.2656,371.9844 L216.2656,370.8906 C216.2656,369.1094 217.5156,367.7969 219.25,367.7969 C219.8281,367.7969 220.4375,367.9531 220.9063,368.2031 C221.3906,368.4844 221.5625,368.7031 221.6563,369.1094 C221.7188,369.5156 221.75,369.6406 221.8906,369.7656 C222.0313,369.9063 222.2656,370.0156 222.4844,370.0156 C222.75,370.0156 223.0156,369.875 223.1875,369.6563 C223.2969,369.5 223.3281,369.3125 223.3281,368.8906 L223.3281,367.4688 C223.3281,367.0313 223.3125,366.9063 223.2188,366.75 C223.0625,366.4844 222.7813,366.3438 222.4844,366.3438 C222.1875,366.3438 221.9844,366.4375 221.7656,366.75 L221.5938,366.6719 Z "/><text fill="#000000" font-family="sans-serif" font-size="12" lengthAdjust="spacingAndGlyphs" textLength="36" x="239.75" y="375.1543">Ticket</text><line style="stroke: #A80036; stroke-width: 1.5;" x1="143" x2="340" y1="387" y2="387"/><rect fill="none" height="6" style="stroke: #C82930; stroke-width: 1.0;" width="6" x="150" y="411.8047"/><text fill="#000000" font-family="sans-serif" font-size="11" lengthAdjust="spacingAndGlyphs" textLength="44" x="162" y="418.0151">id: Long</text><rect fill="none" height="6" style="stroke: #C82930; stroke-width: 1.0;" width="6" x="150" y="424.6094"/><text fill="#000000" font-family="sans-serif" font-size="11" lengthAdjust="spacingAndGlyphs" textLength="126" x="162" y="430.8198">passenger: Passenger</text><rect fill="none" height="6" style="stroke: #C82930; stroke-width: 1.0;" width="6" x="150" y="437.4141"/><text fill="#000000" font-family="sans-serif" font-size="11" lengthAdjust="spacingAndGlyphs" textLength="173" x="162" y="443.6245">purchaseDate: LocalDateTime</text><rect fill="none" height="6" style="stroke: #C82930; stroke-width: 1.0;" width="6" x="150" y="450.2188"/><text fill="#000000" font-family="sans-serif" font-size="11" lengthAdjust="spacingAndGlyphs" textLength="91" x="162" y="456.4292">seatNumber: int</text><rect fill="none" height="6" style="stroke: #C82930; stroke-width: 1.0;" width="6" x="150" y="463.0234"/><text fill="#000000" font-family="sans-serif" font-size="11" lengthAdjust="spacingAndGlyphs" textLength="74" x="162" y="469.2339">price: double</text><rect fill="none" height="6" style="stroke: #C82930; stroke-width: 1.0;" width="6" x="150" y="475.8281"/><text fill="#000000" font-family="sans-serif" font-size="11" lengthAdjust="spacingAndGlyphs" textLength="153" x="162" y="482.0386">connections: Array&lt;Flight&gt;</text><text fill="#000000" font-family="sans-serif" font-size="11" lengthAdjust="spacingAndGlyphs" textLength="161" x="162" y="494.8433">//luggage weight, flightClass</text><line style="stroke: #A80036; stroke-width: 1.5;" x1="143" x2="214.5" y1="401.4023" y2="401.4023"/><text fill="#000000" font-family="sans-serif" font-size="11" lengthAdjust="spacingAndGlyphs" textLength="54" x="214.5" y="404.7104">attributes</text><line style="stroke: #A80036; stroke-width: 1.5;" x1="268.5" x2="340" y1="401.4023" y2="401.4023"/><!--MD5=[044d80e6112339a70fe50413576e9bf7]
class Passenger--><rect fill="#FEFECE" filter="url(#f1e7iexdwir2l3)" height="133.6328" id="Passenger" style="stroke: #A80036; stroke-width: 1.5;" width="155" x="260" y="561"/><ellipse cx="302" cy="577" fill="#ADD1B2" rx="11" ry="11" style="stroke: #A80036; stroke-width: 1.0;"/><path d="M304.3438,572.6719 C303.4063,572.2344 302.8125,572.0938 301.9375,572.0938 C299.3125,572.0938 297.3125,574.1719 297.3125,576.8906 L297.3125,578.0156 C297.3125,580.5938 299.4219,582.4844 302.3125,582.4844 C303.5313,582.4844 304.6875,582.1875 305.4375,581.6406 C306.0156,581.2344 306.3438,580.7813 306.3438,580.3906 C306.3438,579.9375 305.9531,579.5469 305.4844,579.5469 C305.2656,579.5469 305.0625,579.625 304.875,579.8125 C304.4219,580.2969 304.4219,580.2969 304.2344,580.3906 C303.8125,580.6563 303.125,580.7813 302.3594,580.7813 C300.3125,580.7813 299.0156,579.6875 299.0156,577.9844 L299.0156,576.8906 C299.0156,575.1094 300.2656,573.7969 302,573.7969 C302.5781,573.7969 303.1875,573.9531 303.6563,574.2031 C304.1406,574.4844 304.3125,574.7031 304.4063,575.1094 C304.4688,575.5156 304.5,575.6406 304.6406,575.7656 C304.7813,575.9063 305.0156,576.0156 305.2344,576.0156 C305.5,576.0156 305.7656,575.875 305.9375,575.6563 C306.0469,575.5 306.0781,575.3125 306.0781,574.8906 L306.0781,573.4688 C306.0781,573.0313 306.0625,572.9063 305.9688,572.75 C305.8125,572.4844 305.5313,572.3438 305.2344,572.3438 C304.9375,572.3438 304.7344,572.4375 304.5156,572.75 L304.3438,572.6719 Z "/><text fill="#000000" font-family="sans-serif" font-size="12" lengthAdjust="spacingAndGlyphs" textLength="63" x="322" y="581.1543">Passenger</text><line style="stroke: #A80036; stroke-width: 1.5;" x1="261" x2="414" y1="593" y2="593"/><rect fill="none" height="6" style="stroke: #C82930; stroke-width: 1.0;" width="6" x="268" y="617.8047"/><text fill="#000000" font-family="sans-serif" font-size="11" lengthAdjust="spacingAndGlyphs" textLength="94" x="280" y="624.0151">firstname: String</text><rect fill="none" height="6" style="stroke: #C82930; stroke-width: 1.0;" width="6" x="268" y="630.6094"/><text fill="#000000" font-family="sans-serif" font-size="11" lengthAdjust="spacingAndGlyphs" textLength="90" x="280" y="636.8198">surname: String</text><rect fill="none" height="6" style="stroke: #C82930; stroke-width: 1.0;" width="6" x="268" y="643.4141"/><text fill="#000000" font-family="sans-serif" font-size="11" lengthAdjust="spacingAndGlyphs" textLength="129" x="280" y="649.6245">dateOfBirth: LocalDate</text><rect fill="none" height="6" style="stroke: #C82930; stroke-width: 1.0;" width="6" x="268" y="656.2188"/><text fill="#000000" font-family="sans-serif" font-size="11" lengthAdjust="spacingAndGlyphs" textLength="121" x="280" y="662.4292">phoneNumber: String</text><rect fill="none" height="6" style="stroke: #C82930; stroke-width: 1.0;" width="6" x="268" y="669.0234"/><text fill="#000000" font-family="sans-serif" font-size="11" lengthAdjust="spacingAndGlyphs" textLength="72" x="280" y="675.2339">email: String</text><rect fill="none" height="6" style="stroke: #C82930; stroke-width: 1.0;" width="6" x="268" y="681.8281"/><text fill="#000000" font-family="sans-serif" font-size="11" lengthAdjust="spacingAndGlyphs" textLength="72" x="280" y="688.0386">pesel: String</text><line style="stroke: #A80036; stroke-width: 1.5;" x1="261" x2="310.5" y1="607.4023" y2="607.4023"/><text fill="#000000" font-family="sans-serif" font-size="11" lengthAdjust="spacingAndGlyphs" textLength="54" x="310.5" y="610.7104">attributes</text><line style="stroke: #A80036; stroke-width: 1.5;" x1="364.5" x2="414" y1="607.4023" y2="607.4023"/><!--MD5=[18f5b4ccae6e62f3670d3aa352beb4cd]
class Trip--><rect fill="#FEFECE" filter="url(#f1e7iexdwir2l3)" height="146.4375" id="Trip" style="stroke: #A80036; stroke-width: 1.5;" width="203" x="140" y="149"/><ellipse cx="225.75" cy="165" fill="#ADD1B2" rx="11" ry="11" style="stroke: #A80036; stroke-width: 1.0;"/><path d="M228.0938,160.6719 C227.1563,160.2344 226.5625,160.0938 225.6875,160.0938 C223.0625,160.0938 221.0625,162.1719 221.0625,164.8906 L221.0625,166.0156 C221.0625,168.5938 223.1719,170.4844 226.0625,170.4844 C227.2813,170.4844 228.4375,170.1875 229.1875,169.6406 C229.7656,169.2344 230.0938,168.7813 230.0938,168.3906 C230.0938,167.9375 229.7031,167.5469 229.2344,167.5469 C229.0156,167.5469 228.8125,167.625 228.625,167.8125 C228.1719,168.2969 228.1719,168.2969 227.9844,168.3906 C227.5625,168.6563 226.875,168.7813 226.1094,168.7813 C224.0625,168.7813 222.7656,167.6875 222.7656,165.9844 L222.7656,164.8906 C222.7656,163.1094 224.0156,161.7969 225.75,161.7969 C226.3281,161.7969 226.9375,161.9531 227.4063,162.2031 C227.8906,162.4844 228.0625,162.7031 228.1563,163.1094 C228.2188,163.5156 228.25,163.6406 228.3906,163.7656 C228.5313,163.9063 228.7656,164.0156 228.9844,164.0156 C229.25,164.0156 229.5156,163.875 229.6875,163.6563 C229.7969,163.5 229.8281,163.3125 229.8281,162.8906 L229.8281,161.4688 C229.8281,161.0313 229.8125,160.9063 229.7188,160.75 C229.5625,160.4844 229.2813,160.3438 228.9844,160.3438 C228.6875,160.3438 228.4844,160.4375 228.2656,160.75 L228.0938,160.6719 Z "/><text fill="#000000" font-family="sans-serif" font-size="12" lengthAdjust="spacingAndGlyphs" textLength="23" x="246.25" y="169.1543">Trip</text><line style="stroke: #A80036; stroke-width: 1.5;" x1="141" x2="342" y1="181" y2="181"/><rect fill="none" height="6" style="stroke: #C82930; stroke-width: 1.0;" width="6" x="148" y="205.8047"/><text fill="#000000" font-family="sans-serif" font-size="11" lengthAdjust="spacingAndGlyphs" textLength="44" x="160" y="212.0151">id: Long</text><rect fill="none" height="6" style="stroke: #C82930; stroke-width: 1.0;" width="6" x="148" y="218.6094"/><text fill="#000000" font-family="sans-serif" font-size="11" lengthAdjust="spacingAndGlyphs" textLength="121" x="160" y="224.8198">oneWayTrip: boolean</text><rect fill="none" height="6" style="stroke: #C82930; stroke-width: 1.0;" width="6" x="148" y="231.4141"/><text fill="#000000" font-family="sans-serif" font-size="11" lengthAdjust="spacingAndGlyphs" textLength="126" x="160" y="237.6245">tickets: Array&lt;Ticket&gt;</text><rect fill="none" height="6" style="stroke: #C82930; stroke-width: 1.0;" width="6" x="148" y="244.2188"/><text fill="#000000" font-family="sans-serif" font-size="11" lengthAdjust="spacingAndGlyphs" textLength="177" x="160" y="250.4292">departureDate: LocalDateTime</text><rect fill="none" height="6" style="stroke: #C82930; stroke-width: 1.0;" width="6" x="148" y="257.0234"/><text fill="#000000" font-family="sans-serif" font-size="11" lengthAdjust="spacingAndGlyphs" textLength="156" x="160" y="263.2339">arrivalDate: LocalDateTime</text><rect fill="none" height="6" style="stroke: #C82930; stroke-width: 1.0;" width="6" x="148" y="269.8281"/><text fill="#000000" font-family="sans-serif" font-size="11" lengthAdjust="spacingAndGlyphs" textLength="86" x="160" y="276.0386">totalPrice: Price</text><text fill="#000000" font-family="sans-serif" font-size="11" lengthAdjust="spacingAndGlyphs" textLength="79" x="160" y="288.8433">//one way trip</text><line style="stroke: #A80036; stroke-width: 1.5;" x1="141" x2="214.5" y1="195.4023" y2="195.4023"/><text fill="#000000" font-family="sans-serif" font-size="11" lengthAdjust="spacingAndGlyphs" textLength="54" x="214.5" y="198.7104">attributes</text><line style="stroke: #A80036; stroke-width: 1.5;" x1="268.5" x2="342" y1="195.4023" y2="195.4023"/><!--MD5=[7a35d9d3f8fdafb6fce29d2f917f6949]
class AvaiableTrips--><rect fill="#FEFECE" filter="url(#f1e7iexdwir2l3)" height="82.4141" id="AvaiableTrips" style="stroke: #A80036; stroke-width: 1.5;" width="178" x="152.5" y="7"/><ellipse cx="196.75" cy="23" fill="#ADD1B2" rx="11" ry="11" style="stroke: #A80036; stroke-width: 1.0;"/><path d="M199.0938,18.6719 C198.1563,18.2344 197.5625,18.0938 196.6875,18.0938 C194.0625,18.0938 192.0625,20.1719 192.0625,22.8906 L192.0625,24.0156 C192.0625,26.5938 194.1719,28.4844 197.0625,28.4844 C198.2813,28.4844 199.4375,28.1875 200.1875,27.6406 C200.7656,27.2344 201.0938,26.7813 201.0938,26.3906 C201.0938,25.9375 200.7031,25.5469 200.2344,25.5469 C200.0156,25.5469 199.8125,25.625 199.625,25.8125 C199.1719,26.2969 199.1719,26.2969 198.9844,26.3906 C198.5625,26.6563 197.875,26.7813 197.1094,26.7813 C195.0625,26.7813 193.7656,25.6875 193.7656,23.9844 L193.7656,22.8906 C193.7656,21.1094 195.0156,19.7969 196.75,19.7969 C197.3281,19.7969 197.9375,19.9531 198.4063,20.2031 C198.8906,20.4844 199.0625,20.7031 199.1563,21.1094 C199.2188,21.5156 199.25,21.6406 199.3906,21.7656 C199.5313,21.9063 199.7656,22.0156 199.9844,22.0156 C200.25,22.0156 200.5156,21.875 200.6875,21.6563 C200.7969,21.5 200.8281,21.3125 200.8281,20.8906 L200.8281,19.4688 C200.8281,19.0313 200.8125,18.9063 200.7188,18.75 C200.5625,18.4844 200.2813,18.3438 199.9844,18.3438 C199.6875,18.3438 199.4844,18.4375 199.2656,18.75 L199.0938,18.6719 Z "/><text fill="#000000" font-family="sans-serif" font-size="12" lengthAdjust="spacingAndGlyphs" textLength="81" x="217.25" y="27.1543">AvaiableTrips</text><line style="stroke: #A80036; stroke-width: 1.5;" x1="153.5" x2="329.5" y1="39" y2="39"/><rect fill="none" height="6" style="stroke: #C82930; stroke-width: 1.0;" width="6" x="160.5" y="63.8047"/><text fill="#000000" font-family="sans-serif" font-size="11" lengthAdjust="spacingAndGlyphs" textLength="44" x="172.5" y="70.0151">id: Long</text><rect fill="none" height="6" style="stroke: #C82930; stroke-width: 1.0;" width="6" x="160.5" y="76.6094"/><text fill="#000000" font-family="sans-serif" font-size="11" lengthAdjust="spacingAndGlyphs" textLength="152" x="172.5" y="82.8198">avaiableTrips: Array&lt;Trip&gt;</text><line style="stroke: #A80036; stroke-width: 1.5;" x1="153.5" x2="214.5" y1="53.4023" y2="53.4023"/><text fill="#000000" font-family="sans-serif" font-size="11" lengthAdjust="spacingAndGlyphs" textLength="54" x="214.5" y="56.7104">attributes</text><line style="stroke: #A80036; stroke-width: 1.5;" x1="268.5" x2="329.5" y1="53.4023" y2="53.4023"/><!--MD5=[a98998e31cd5bab83863ea3400bc3503]
link Connection to Airline--><path d="M163.415,876.019 C176.361,919.032 193.672,976.546 206.02,1017.57 " fill="none" id="Connection-&gt;Airline" style="stroke: #A80036; stroke-width: 1.0; stroke-dasharray: 7.0,7.0;"/><polygon fill="#A80036" points="207.501,1022.489,208.7363,1012.7179,206.0594,1017.7013,201.076,1015.0245,207.501,1022.489" style="stroke: #A80036; stroke-width: 1.0;"/><!--MD5=[526b35ea744f6a85a47a1aba3c122c69]
link Connection to Airport--><path d="M127.585,876.019 C117.17,910.624 103.9286,954.616 92.7199,991.855 " fill="none" id="Connection-&gt;Airport" style="stroke: #A80036; stroke-width: 1.0; stroke-dasharray: 7.0,7.0;"/><polygon fill="#A80036" points="91.2229,996.828,97.6476,989.3632,92.6643,992.0403,89.9872,987.057,91.2229,996.828" style="stroke: #A80036; stroke-width: 1.0;"/><!--MD5=[b24544e0dd3455f6a21b29fc616bf4df]
reverse link Flight to Connection--><path d="M145.5,701.906 C145.5,719.467 145.5,738.025 145.5,754.897 " fill="none" id="Flight&lt;-Connection" style="stroke: #A80036; stroke-width: 1.0;"/><polygon fill="#A80036" points="145.5,688.714,141.5,694.714,145.5,700.714,149.5,694.714,145.5,688.714" style="stroke: #A80036; stroke-width: 1.0;"/><!--MD5=[ca5f516dac2e3843abf0c9a310e06bfc]
reverse link Ticket to Passenger--><path d="M282.29,513.129 C290.036,529.106 298.039,545.612 305.466,560.93 " fill="none" id="Ticket&lt;-Passenger" style="stroke: #A80036; stroke-width: 1.0;"/><polygon fill="#FFFFFF" points="276.43,501.043,275.4481,508.1869,281.6648,511.841,282.6467,504.6971,276.43,501.043" style="stroke: #A80036; stroke-width: 1.0;"/><!--MD5=[7f1cb68d450bbc66d3dc7e285fd370f3]
reverse link Ticket to Flight--><path d="M200.802,512.94 C191.929,531.241 182.715,550.244 174.411,567.37 " fill="none" id="Ticket&lt;-Flight" style="stroke: #A80036; stroke-width: 1.0;"/><polygon fill="#FFFFFF" points="206.57,501.043,200.3533,504.6971,201.3352,511.841,207.5519,508.1869,206.57,501.043" style="stroke: #A80036; stroke-width: 1.0;"/><!--MD5=[fdd60aa9cee27aeb7a40e9d8ad846747]
reverse link Trip to Ticket--><path d="M241.5,308.581 C241.5,323.989 241.5,339.909 241.5,354.887 " fill="none" id="Trip&lt;-Ticket" style="stroke: #A80036; stroke-width: 1.0;"/><polygon fill="#A80036" points="241.5,295.21,237.5,301.21,241.5,307.21,245.5,301.21,241.5,295.21" style="stroke: #A80036; stroke-width: 1.0;"/><!--MD5=[e002e18c9b21267c296b03515f57f9f9]
reverse link AvaiableTrips to Trip--><path d="M241.5,102.37 C241.5,117.09 241.5,133.31 241.5,148.91 " fill="none" id="AvaiableTrips&lt;-Trip" style="stroke: #A80036; stroke-width: 1.0;"/><polygon fill="#FFFFFF" points="241.5,89.33,237.5,95.33,241.5,101.33,245.5,95.33,241.5,89.33" style="stroke: #A80036; stroke-width: 1.0;"/><!--MD5=[c83a8b6ad13f8dd638ec455a3756fe77]
@startuml
class Airport {
  __ attributes __
  - id: Long
  - name: String
  - city: String
  - country: String
  - longitude: double
  - latitude: double
  - timezone: int
}

class Airline {
  __ attributes __
  - id: Long
  - name: String
  - country: String
}

class Connection {
  __ attributes __
  - id: Long
  - srcAirport: Airport
  - dstAirport: Airport
  - departureDate: LocalDateTime
  - arrivalDate: LocalDateTime
}

class Flight {
  __ attributes __
  - id: Long
  - connection: Connection
  - airline: Airline
  - numberSeats: int
  - price: double
}

class Ticket {
  __ attributes __
  - id: Long
  - passenger: Passenger
  - purchaseDate: LocalDateTime
  - seatNumber: int
  - price: double
  - connections: Array<Flight>
  //luggage weight, flightClass
}

class Passenger {
  __ attributes __
  -firstname: String
  -surname: String
  -dateOfBirth: LocalDate
  -phoneNumber: String
  -email: String
  -pesel: String
}

class Trip {
  __ attributes __
  - id: Long
  - oneWayTrip: boolean
  - tickets: Array<Ticket>
  - departureDate: LocalDateTime
  - arrivalDate: LocalDateTime
  - totalPrice: Price
  //one way trip
}

class AvaiableTrips {
  __ attributes __
  - id: Long
  - avaiableTrips: Array<Trip>
}

Connection - -.> Airline
Connection - -.> Airport
Flight *- - Connection
Ticket o- - Passenger
Ticket o- - Flight
Trip *- - Ticket
AvaiableTrips o- - Trip
@enduml

PlantUML version 1.2020.15beta1(Unknown compile time)
(GPL source distribution)
Java Runtime: Java(TM) SE Runtime Environment
JVM: Java HotSpot(TM) 64-Bit Server VM
Default Encoding: UTF-8
Language: en
Country: US
--></g></svg>