<?xml version="1.0" encoding="UTF-8" standalone="no"?><svg xmlns="http://www.w3.org/2000/svg" xmlns:xlink="http://www.w3.org/1999/xlink" contentScriptType="application/ecmascript" contentStyleType="text/css" height="959px" preserveAspectRatio="none" style="width:447px;height:959px;" version="1.1" viewBox="0 0 447 959" width="447px" zoomAndPan="magnify"><defs><filter height="300%" id="ft3t6ub6id5tb" width="300%" x="-1" y="-1"><feGaussianBlur result="blurOut" stdDeviation="2.0"/><feColorMatrix in="blurOut" result="blurOut2" type="matrix" values="0 0 0 0 0 0 0 0 0 0 0 0 0 0 0 0 0 0 .4 0"/><feOffset dx="4.0" dy="4.0" in="blurOut2" result="blurOut3"/><feBlend in="SourceGraphic" in2="blurOut3" mode="normal"/></filter></defs><g><!--MD5=[ffe09eff7e904b42cb9ab485252a98fc]
class Airport--><rect codeLine="1" fill="#FEFECE" filter="url(#ft3t6ub6id5tb)" height="146.4375" id="Airport" style="stroke: #A80036; stroke-width: 1.5;" width="125" x="7" y="794"/><ellipse cx="45.4" cy="810" fill="#ADD1B2" rx="11" ry="11" style="stroke: #A80036; stroke-width: 1.0;"/><path d="M47.7438,805.6719 C46.8063,805.2344 46.2125,805.0938 45.3375,805.0938 C42.7125,805.0938 40.7125,807.1719 40.7125,809.8906 L40.7125,811.0156 C40.7125,813.5938 42.8219,815.4844 45.7125,815.4844 C46.9313,815.4844 48.0875,815.1875 48.8375,814.6406 C49.4156,814.2344 49.7438,813.7813 49.7438,813.3906 C49.7438,812.9375 49.3531,812.5469 48.8844,812.5469 C48.6656,812.5469 48.4625,812.625 48.275,812.8125 C47.8219,813.2969 47.8219,813.2969 47.6344,813.3906 C47.2125,813.6563 46.525,813.7813 45.7594,813.7813 C43.7125,813.7813 42.4156,812.6875 42.4156,810.9844 L42.4156,809.8906 C42.4156,808.1094 43.6656,806.7969 45.4,806.7969 C45.9781,806.7969 46.5875,806.9531 47.0563,807.2031 C47.5406,807.4844 47.7125,807.7031 47.8063,808.1094 C47.8688,808.5156 47.9,808.6406 48.0406,808.7656 C48.1813,808.9063 48.4156,809.0156 48.6344,809.0156 C48.9,809.0156 49.1656,808.875 49.3375,808.6563 C49.4469,808.5 49.4781,808.3125 49.4781,807.8906 L49.4781,806.4688 C49.4781,806.0313 49.4625,805.9063 49.3688,805.75 C49.2125,805.4844 48.9313,805.3438 48.6344,805.3438 C48.3375,805.3438 48.1344,805.4375 47.9156,805.75 L47.7438,805.6719 Z "/><text fill="#000000" font-family="sans-serif" font-size="12" lengthAdjust="spacingAndGlyphs" textLength="41" x="64.6" y="814.1543">Airport</text><line style="stroke: #A80036; stroke-width: 1.5;" x1="8" x2="131" y1="826" y2="826"/><rect fill="none" height="6" style="stroke: #C82930; stroke-width: 1.0;" width="6" x="15" y="850.8047"/><text fill="#000000" font-family="sans-serif" font-size="11" lengthAdjust="spacingAndGlyphs" textLength="44" x="27" y="857.0151">id: Long</text><rect fill="none" height="6" style="stroke: #C82930; stroke-width: 1.0;" width="6" x="15" y="863.6094"/><text fill="#000000" font-family="sans-serif" font-size="11" lengthAdjust="spacingAndGlyphs" textLength="73" x="27" y="869.8198">name: String</text><rect fill="none" height="6" style="stroke: #C82930; stroke-width: 1.0;" width="6" x="15" y="876.4141"/><text fill="#000000" font-family="sans-serif" font-size="11" lengthAdjust="spacingAndGlyphs" textLength="60" x="27" y="882.6245">city: String</text><rect fill="none" height="6" style="stroke: #C82930; stroke-width: 1.0;" width="6" x="15" y="889.2188"/><text fill="#000000" font-family="sans-serif" font-size="11" lengthAdjust="spacingAndGlyphs" textLength="82" x="27" y="895.4292">country: String</text><rect fill="none" height="6" style="stroke: #C82930; stroke-width: 1.0;" width="6" x="15" y="902.0234"/><text fill="#000000" font-family="sans-serif" font-size="11" lengthAdjust="spacingAndGlyphs" textLength="99" x="27" y="908.2339">longitude: double</text><rect fill="none" height="6" style="stroke: #C82930; stroke-width: 1.0;" width="6" x="15" y="914.8281"/><text fill="#000000" font-family="sans-serif" font-size="11" lengthAdjust="spacingAndGlyphs" textLength="89" x="27" y="921.0386">latitude: double</text><rect fill="none" height="6" style="stroke: #C82930; stroke-width: 1.0;" width="6" x="15" y="927.6328"/><text fill="#000000" font-family="sans-serif" font-size="11" lengthAdjust="spacingAndGlyphs" textLength="76" x="27" y="933.8433">timezone: int</text><line style="stroke: #A80036; stroke-width: 1.5;" x1="8" x2="42.5" y1="840.4023" y2="840.4023"/><text fill="#000000" font-family="sans-serif" font-size="11" lengthAdjust="spacingAndGlyphs" textLength="54" x="42.5" y="843.7104">attributes</text><line style="stroke: #A80036; stroke-width: 1.5;" x1="96.5" x2="131" y1="840.4023" y2="840.4023"/><!--MD5=[29a2f04f72d5d666178ac7af56ef55cc]
class Airline--><rect codeLine="12" fill="#FEFECE" filter="url(#ft3t6ub6id5tb)" height="95.2188" id="Airline" style="stroke: #A80036; stroke-width: 1.5;" width="108" x="167.5" y="819.5"/><ellipse cx="200.05" cy="835.5" fill="#ADD1B2" rx="11" ry="11" style="stroke: #A80036; stroke-width: 1.0;"/><path d="M202.3938,831.1719 C201.4563,830.7344 200.8625,830.5938 199.9875,830.5938 C197.3625,830.5938 195.3625,832.6719 195.3625,835.3906 L195.3625,836.5156 C195.3625,839.0938 197.4719,840.9844 200.3625,840.9844 C201.5813,840.9844 202.7375,840.6875 203.4875,840.1406 C204.0656,839.7344 204.3938,839.2813 204.3938,838.8906 C204.3938,838.4375 204.0031,838.0469 203.5344,838.0469 C203.3156,838.0469 203.1125,838.125 202.925,838.3125 C202.4719,838.7969 202.4719,838.7969 202.2844,838.8906 C201.8625,839.1563 201.175,839.2813 200.4094,839.2813 C198.3625,839.2813 197.0656,838.1875 197.0656,836.4844 L197.0656,835.3906 C197.0656,833.6094 198.3156,832.2969 200.05,832.2969 C200.6281,832.2969 201.2375,832.4531 201.7063,832.7031 C202.1906,832.9844 202.3625,833.2031 202.4563,833.6094 C202.5188,834.0156 202.55,834.1406 202.6906,834.2656 C202.8313,834.4063 203.0656,834.5156 203.2844,834.5156 C203.55,834.5156 203.8156,834.375 203.9875,834.1563 C204.0969,834 204.1281,833.8125 204.1281,833.3906 L204.1281,831.9688 C204.1281,831.5313 204.1125,831.4063 204.0188,831.25 C203.8625,830.9844 203.5813,830.8438 203.2844,830.8438 C202.9875,830.8438 202.7844,830.9375 202.5656,831.25 L202.3938,831.1719 Z "/><text fill="#000000" font-family="sans-serif" font-size="12" lengthAdjust="spacingAndGlyphs" textLength="37" x="217.95" y="839.6543">Airline</text><line style="stroke: #A80036; stroke-width: 1.5;" x1="168.5" x2="274.5" y1="851.5" y2="851.5"/><rect fill="none" height="6" style="stroke: #C82930; stroke-width: 1.0;" width="6" x="175.5" y="876.3047"/><text fill="#000000" font-family="sans-serif" font-size="11" lengthAdjust="spacingAndGlyphs" textLength="44" x="187.5" y="882.5151">id: Long</text><rect fill="none" height="6" style="stroke: #C82930; stroke-width: 1.0;" width="6" x="175.5" y="889.1094"/><text fill="#000000" font-family="sans-serif" font-size="11" lengthAdjust="spacingAndGlyphs" textLength="73" x="187.5" y="895.3198">name: String</text><rect fill="none" height="6" style="stroke: #C82930; stroke-width: 1.0;" width="6" x="175.5" y="901.9141"/><text fill="#000000" font-family="sans-serif" font-size="11" lengthAdjust="spacingAndGlyphs" textLength="82" x="187.5" y="908.1245">country: String</text><line style="stroke: #A80036; stroke-width: 1.5;" x1="168.5" x2="194.5" y1="865.9023" y2="865.9023"/><text fill="#000000" font-family="sans-serif" font-size="11" lengthAdjust="spacingAndGlyphs" textLength="54" x="194.5" y="869.2104">attributes</text><line style="stroke: #A80036; stroke-width: 1.5;" x1="248.5" x2="274.5" y1="865.9023" y2="865.9023"/><!--MD5=[ad510ca42d1a057b37ac2813b8ee5b40]
class Connection--><rect codeLine="19" fill="#FEFECE" filter="url(#ft3t6ub6id5tb)" height="95.2188" id="Connection" style="stroke: #A80036; stroke-width: 1.5;" width="124" x="83.5" y="639"/><ellipse cx="109.75" cy="655" fill="#ADD1B2" rx="11" ry="11" style="stroke: #A80036; stroke-width: 1.0;"/><path d="M112.0938,650.6719 C111.1563,650.2344 110.5625,650.0938 109.6875,650.0938 C107.0625,650.0938 105.0625,652.1719 105.0625,654.8906 L105.0625,656.0156 C105.0625,658.5938 107.1719,660.4844 110.0625,660.4844 C111.2813,660.4844 112.4375,660.1875 113.1875,659.6406 C113.7656,659.2344 114.0938,658.7813 114.0938,658.3906 C114.0938,657.9375 113.7031,657.5469 113.2344,657.5469 C113.0156,657.5469 112.8125,657.625 112.625,657.8125 C112.1719,658.2969 112.1719,658.2969 111.9844,658.3906 C111.5625,658.6563 110.875,658.7813 110.1094,658.7813 C108.0625,658.7813 106.7656,657.6875 106.7656,655.9844 L106.7656,654.8906 C106.7656,653.1094 108.0156,651.7969 109.75,651.7969 C110.3281,651.7969 110.9375,651.9531 111.4063,652.2031 C111.8906,652.4844 112.0625,652.7031 112.1563,653.1094 C112.2188,653.5156 112.25,653.6406 112.3906,653.7656 C112.5313,653.9063 112.7656,654.0156 112.9844,654.0156 C113.25,654.0156 113.5156,653.875 113.6875,653.6563 C113.7969,653.5 113.8281,653.3125 113.8281,652.8906 L113.8281,651.4688 C113.8281,651.0313 113.8125,650.9063 113.7188,650.75 C113.5625,650.4844 113.2813,650.3438 112.9844,650.3438 C112.6875,650.3438 112.4844,650.4375 112.2656,650.75 L112.0938,650.6719 Z "/><text fill="#000000" font-family="sans-serif" font-size="12" lengthAdjust="spacingAndGlyphs" textLength="67" x="126.25" y="659.1543">Connection</text><line style="stroke: #A80036; stroke-width: 1.5;" x1="84.5" x2="206.5" y1="671" y2="671"/><rect fill="none" height="6" style="stroke: #C82930; stroke-width: 1.0;" width="6" x="91.5" y="695.8047"/><text fill="#000000" font-family="sans-serif" font-size="11" lengthAdjust="spacingAndGlyphs" textLength="44" x="103.5" y="702.0151">id: Long</text><rect fill="none" height="6" style="stroke: #C82930; stroke-width: 1.0;" width="6" x="91.5" y="708.6094"/><text fill="#000000" font-family="sans-serif" font-size="11" lengthAdjust="spacingAndGlyphs" textLength="97" x="103.5" y="714.8198">srcAirport: Airport</text><rect fill="none" height="6" style="stroke: #C82930; stroke-width: 1.0;" width="6" x="91.5" y="721.4141"/><text fill="#000000" font-family="sans-serif" font-size="11" lengthAdjust="spacingAndGlyphs" textLength="98" x="103.5" y="727.6245">dstAirport: Airport</text><line style="stroke: #A80036; stroke-width: 1.5;" x1="84.5" x2="118.5" y1="685.4023" y2="685.4023"/><text fill="#000000" font-family="sans-serif" font-size="11" lengthAdjust="spacingAndGlyphs" textLength="54" x="118.5" y="688.7104">attributes</text><line style="stroke: #A80036; stroke-width: 1.5;" x1="172.5" x2="206.5" y1="685.4023" y2="685.4023"/><!--MD5=[bd6e5d4dd3d7814cbdc3148d3ed1ec4b]
class Flight--><rect codeLine="26" fill="#FEFECE" filter="url(#ft3t6ub6id5tb)" height="146.4375" id="Flight" style="stroke: #A80036; stroke-width: 1.5;" width="159" x="66" y="433"/><ellipse cx="125.25" cy="449" fill="#ADD1B2" rx="11" ry="11" style="stroke: #A80036; stroke-width: 1.0;"/><path d="M127.5938,444.6719 C126.6563,444.2344 126.0625,444.0938 125.1875,444.0938 C122.5625,444.0938 120.5625,446.1719 120.5625,448.8906 L120.5625,450.0156 C120.5625,452.5938 122.6719,454.4844 125.5625,454.4844 C126.7813,454.4844 127.9375,454.1875 128.6875,453.6406 C129.2656,453.2344 129.5938,452.7813 129.5938,452.3906 C129.5938,451.9375 129.2031,451.5469 128.7344,451.5469 C128.5156,451.5469 128.3125,451.625 128.125,451.8125 C127.6719,452.2969 127.6719,452.2969 127.4844,452.3906 C127.0625,452.6563 126.375,452.7813 125.6094,452.7813 C123.5625,452.7813 122.2656,451.6875 122.2656,449.9844 L122.2656,448.8906 C122.2656,447.1094 123.5156,445.7969 125.25,445.7969 C125.8281,445.7969 126.4375,445.9531 126.9063,446.2031 C127.3906,446.4844 127.5625,446.7031 127.6563,447.1094 C127.7188,447.5156 127.75,447.6406 127.8906,447.7656 C128.0313,447.9063 128.2656,448.0156 128.4844,448.0156 C128.75,448.0156 129.0156,447.875 129.1875,447.6563 C129.2969,447.5 129.3281,447.3125 129.3281,446.8906 L129.3281,445.4688 C129.3281,445.0313 129.3125,444.9063 129.2188,444.75 C129.0625,444.4844 128.7813,444.3438 128.4844,444.3438 C128.1875,444.3438 127.9844,444.4375 127.7656,444.75 L127.5938,444.6719 Z "/><text fill="#000000" font-family="sans-serif" font-size="12" lengthAdjust="spacingAndGlyphs" textLength="32" x="145.75" y="453.1543">Flight</text><line style="stroke: #A80036; stroke-width: 1.5;" x1="67" x2="224" y1="465" y2="465"/><rect fill="none" height="6" style="stroke: #C82930; stroke-width: 1.0;" width="6" x="74" y="489.8047"/><text fill="#000000" font-family="sans-serif" font-size="11" lengthAdjust="spacingAndGlyphs" textLength="44" x="86" y="496.0151">id: Long</text><rect fill="none" height="6" style="stroke: #C82930; stroke-width: 1.0;" width="6" x="74" y="502.6094"/><text fill="#000000" font-family="sans-serif" font-size="11" lengthAdjust="spacingAndGlyphs" textLength="133" x="86" y="508.8198">connection: Connection</text><rect fill="none" height="6" style="stroke: #C82930; stroke-width: 1.0;" width="6" x="74" y="515.4141"/><text fill="#000000" font-family="sans-serif" font-size="11" lengthAdjust="spacingAndGlyphs" textLength="78" x="86" y="521.6245">airline: Airline</text><rect fill="none" height="6" style="stroke: #C82930; stroke-width: 1.0;" width="6" x="74" y="528.2188"/><text fill="#000000" font-family="sans-serif" font-size="11" lengthAdjust="spacingAndGlyphs" textLength="98" x="86" y="534.4292">numberSeats: int</text><rect fill="none" height="6" style="stroke: #C82930; stroke-width: 1.0;" width="6" x="74" y="541.0234"/><text fill="#000000" font-family="sans-serif" font-size="11" lengthAdjust="spacingAndGlyphs" textLength="106" x="86" y="547.2339">availableSeats: int</text><rect fill="none" height="6" style="stroke: #C82930; stroke-width: 1.0;" width="6" x="74" y="553.8281"/><text fill="#000000" font-family="sans-serif" font-size="11" lengthAdjust="spacingAndGlyphs" textLength="74" x="86" y="560.0386">price: double</text><rect fill="none" height="6" style="stroke: #C82930; stroke-width: 1.0;" width="6" x="74" y="566.6328"/><text fill="#000000" font-family="sans-serif" font-size="11" lengthAdjust="spacingAndGlyphs" textLength="74" x="86" y="572.8433">times: Times</text><line style="stroke: #A80036; stroke-width: 1.5;" x1="67" x2="118.5" y1="479.4023" y2="479.4023"/><text fill="#000000" font-family="sans-serif" font-size="11" lengthAdjust="spacingAndGlyphs" textLength="54" x="118.5" y="482.7104">attributes</text><line style="stroke: #A80036; stroke-width: 1.5;" x1="172.5" x2="224" y1="479.4023" y2="479.4023"/><!--MD5=[e6f86f43e4baf6fac8b55f7d4116b677]
class Times--><rect codeLine="37" fill="#FEFECE" filter="url(#ft3t6ub6id5tb)" height="95.2188" id="Times" style="stroke: #A80036; stroke-width: 1.5;" width="176" x="53.5" y="265"/><ellipse cx="119.25" cy="281" fill="#ADD1B2" rx="11" ry="11" style="stroke: #A80036; stroke-width: 1.0;"/><path d="M121.5938,276.6719 C120.6563,276.2344 120.0625,276.0938 119.1875,276.0938 C116.5625,276.0938 114.5625,278.1719 114.5625,280.8906 L114.5625,282.0156 C114.5625,284.5938 116.6719,286.4844 119.5625,286.4844 C120.7813,286.4844 121.9375,286.1875 122.6875,285.6406 C123.2656,285.2344 123.5938,284.7813 123.5938,284.3906 C123.5938,283.9375 123.2031,283.5469 122.7344,283.5469 C122.5156,283.5469 122.3125,283.625 122.125,283.8125 C121.6719,284.2969 121.6719,284.2969 121.4844,284.3906 C121.0625,284.6563 120.375,284.7813 119.6094,284.7813 C117.5625,284.7813 116.2656,283.6875 116.2656,281.9844 L116.2656,280.8906 C116.2656,279.1094 117.5156,277.7969 119.25,277.7969 C119.8281,277.7969 120.4375,277.9531 120.9063,278.2031 C121.3906,278.4844 121.5625,278.7031 121.6563,279.1094 C121.7188,279.5156 121.75,279.6406 121.8906,279.7656 C122.0313,279.9063 122.2656,280.0156 122.4844,280.0156 C122.75,280.0156 123.0156,279.875 123.1875,279.6563 C123.2969,279.5 123.3281,279.3125 123.3281,278.8906 L123.3281,277.4688 C123.3281,277.0313 123.3125,276.9063 123.2188,276.75 C123.0625,276.4844 122.7813,276.3438 122.4844,276.3438 C122.1875,276.3438 121.9844,276.4375 121.7656,276.75 L121.5938,276.6719 Z "/><text fill="#000000" font-family="sans-serif" font-size="12" lengthAdjust="spacingAndGlyphs" textLength="36" x="139.75" y="285.1543">Times</text><line style="stroke: #A80036; stroke-width: 1.5;" x1="54.5" x2="228.5" y1="297" y2="297"/><rect fill="none" height="6" style="stroke: #C82930; stroke-width: 1.0;" width="6" x="61.5" y="321.8047"/><text fill="#000000" font-family="sans-serif" font-size="11" lengthAdjust="spacingAndGlyphs" textLength="148" x="73.5" y="328.0151">departureDate: LocalDate</text><rect fill="none" height="6" style="stroke: #C82930; stroke-width: 1.0;" width="6" x="61.5" y="334.6094"/><text fill="#000000" font-family="sans-serif" font-size="11" lengthAdjust="spacingAndGlyphs" textLength="150" x="73.5" y="340.8198">departureTime: LocalTime</text><rect fill="none" height="6" style="stroke: #C82930; stroke-width: 1.0;" width="6" x="61.5" y="347.4141"/><text fill="#000000" font-family="sans-serif" font-size="11" lengthAdjust="spacingAndGlyphs" textLength="122" x="73.5" y="353.6245">flightTime: LocalTime</text><line style="stroke: #A80036; stroke-width: 1.5;" x1="54.5" x2="114.5" y1="311.4023" y2="311.4023"/><text fill="#000000" font-family="sans-serif" font-size="11" lengthAdjust="spacingAndGlyphs" textLength="54" x="114.5" y="314.7104">attributes</text><line style="stroke: #A80036; stroke-width: 1.5;" x1="168.5" x2="228.5" y1="311.4023" y2="311.4023"/><!--MD5=[ac6bea31e13c94c7baa9ad18feb7405e]
class Ticket--><rect codeLine="44" fill="#FEFECE" filter="url(#ft3t6ub6id5tb)" height="120.8281" id="Ticket" style="stroke: #A80036; stroke-width: 1.5;" width="152" x="264.5" y="252"/><ellipse cx="318.25" cy="268" fill="#ADD1B2" rx="11" ry="11" style="stroke: #A80036; stroke-width: 1.0;"/><path d="M320.5938,263.6719 C319.6563,263.2344 319.0625,263.0938 318.1875,263.0938 C315.5625,263.0938 313.5625,265.1719 313.5625,267.8906 L313.5625,269.0156 C313.5625,271.5938 315.6719,273.4844 318.5625,273.4844 C319.7813,273.4844 320.9375,273.1875 321.6875,272.6406 C322.2656,272.2344 322.5938,271.7813 322.5938,271.3906 C322.5938,270.9375 322.2031,270.5469 321.7344,270.5469 C321.5156,270.5469 321.3125,270.625 321.125,270.8125 C320.6719,271.2969 320.6719,271.2969 320.4844,271.3906 C320.0625,271.6563 319.375,271.7813 318.6094,271.7813 C316.5625,271.7813 315.2656,270.6875 315.2656,268.9844 L315.2656,267.8906 C315.2656,266.1094 316.5156,264.7969 318.25,264.7969 C318.8281,264.7969 319.4375,264.9531 319.9063,265.2031 C320.3906,265.4844 320.5625,265.7031 320.6563,266.1094 C320.7188,266.5156 320.75,266.6406 320.8906,266.7656 C321.0313,266.9063 321.2656,267.0156 321.4844,267.0156 C321.75,267.0156 322.0156,266.875 322.1875,266.6563 C322.2969,266.5 322.3281,266.3125 322.3281,265.8906 L322.3281,264.4688 C322.3281,264.0313 322.3125,263.9063 322.2188,263.75 C322.0625,263.4844 321.7813,263.3438 321.4844,263.3438 C321.1875,263.3438 320.9844,263.4375 320.7656,263.75 L320.5938,263.6719 Z "/><text fill="#000000" font-family="sans-serif" font-size="12" lengthAdjust="spacingAndGlyphs" textLength="36" x="338.75" y="272.1543">Ticket</text><line style="stroke: #A80036; stroke-width: 1.5;" x1="265.5" x2="415.5" y1="284" y2="284"/><rect fill="none" height="6" style="stroke: #C82930; stroke-width: 1.0;" width="6" x="272.5" y="308.8047"/><text fill="#000000" font-family="sans-serif" font-size="11" lengthAdjust="spacingAndGlyphs" textLength="44" x="284.5" y="315.0151">id: Long</text><rect fill="none" height="6" style="stroke: #C82930; stroke-width: 1.0;" width="6" x="272.5" y="321.6094"/><text fill="#000000" font-family="sans-serif" font-size="11" lengthAdjust="spacingAndGlyphs" textLength="126" x="284.5" y="327.8198">passenger: Passenger</text><rect fill="none" height="6" style="stroke: #C82930; stroke-width: 1.0;" width="6" x="272.5" y="334.4141"/><text fill="#000000" font-family="sans-serif" font-size="11" lengthAdjust="spacingAndGlyphs" textLength="65" x="284.5" y="340.6245">flight: Flight</text><rect fill="none" height="6" style="stroke: #C82930; stroke-width: 1.0;" width="6" x="272.5" y="347.2188"/><text fill="#000000" font-family="sans-serif" font-size="11" lengthAdjust="spacingAndGlyphs" textLength="118" x="284.5" y="353.4292">seatNumber: Integer</text><rect fill="none" height="6" style="stroke: #C82930; stroke-width: 1.0;" width="6" x="272.5" y="360.0234"/><text fill="#000000" font-family="sans-serif" font-size="11" lengthAdjust="spacingAndGlyphs" textLength="74" x="284.5" y="366.2339">price: double</text><line style="stroke: #A80036; stroke-width: 1.5;" x1="265.5" x2="313.5" y1="298.4023" y2="298.4023"/><text fill="#000000" font-family="sans-serif" font-size="11" lengthAdjust="spacingAndGlyphs" textLength="54" x="313.5" y="301.7104">attributes</text><line style="stroke: #A80036; stroke-width: 1.5;" x1="367.5" x2="415.5" y1="298.4023" y2="298.4023"/><!--MD5=[044d80e6112339a70fe50413576e9bf7]
class Passenger--><rect codeLine="53" fill="#FEFECE" filter="url(#ft3t6ub6id5tb)" height="146.4375" id="Passenger" style="stroke: #A80036; stroke-width: 1.5;" width="155" x="263" y="433"/><ellipse cx="305" cy="449" fill="#ADD1B2" rx="11" ry="11" style="stroke: #A80036; stroke-width: 1.0;"/><path d="M307.3438,444.6719 C306.4063,444.2344 305.8125,444.0938 304.9375,444.0938 C302.3125,444.0938 300.3125,446.1719 300.3125,448.8906 L300.3125,450.0156 C300.3125,452.5938 302.4219,454.4844 305.3125,454.4844 C306.5313,454.4844 307.6875,454.1875 308.4375,453.6406 C309.0156,453.2344 309.3438,452.7813 309.3438,452.3906 C309.3438,451.9375 308.9531,451.5469 308.4844,451.5469 C308.2656,451.5469 308.0625,451.625 307.875,451.8125 C307.4219,452.2969 307.4219,452.2969 307.2344,452.3906 C306.8125,452.6563 306.125,452.7813 305.3594,452.7813 C303.3125,452.7813 302.0156,451.6875 302.0156,449.9844 L302.0156,448.8906 C302.0156,447.1094 303.2656,445.7969 305,445.7969 C305.5781,445.7969 306.1875,445.9531 306.6563,446.2031 C307.1406,446.4844 307.3125,446.7031 307.4063,447.1094 C307.4688,447.5156 307.5,447.6406 307.6406,447.7656 C307.7813,447.9063 308.0156,448.0156 308.2344,448.0156 C308.5,448.0156 308.7656,447.875 308.9375,447.6563 C309.0469,447.5 309.0781,447.3125 309.0781,446.8906 L309.0781,445.4688 C309.0781,445.0313 309.0625,444.9063 308.9688,444.75 C308.8125,444.4844 308.5313,444.3438 308.2344,444.3438 C307.9375,444.3438 307.7344,444.4375 307.5156,444.75 L307.3438,444.6719 Z "/><text fill="#000000" font-family="sans-serif" font-size="12" lengthAdjust="spacingAndGlyphs" textLength="63" x="325" y="453.1543">Passenger</text><line style="stroke: #A80036; stroke-width: 1.5;" x1="264" x2="417" y1="465" y2="465"/><rect fill="none" height="6" style="stroke: #C82930; stroke-width: 1.0;" width="6" x="271" y="489.8047"/><text fill="#000000" font-family="sans-serif" font-size="11" lengthAdjust="spacingAndGlyphs" textLength="44" x="283" y="496.0151">id: Long</text><rect fill="none" height="6" style="stroke: #C82930; stroke-width: 1.0;" width="6" x="271" y="502.6094"/><text fill="#000000" font-family="sans-serif" font-size="11" lengthAdjust="spacingAndGlyphs" textLength="72" x="283" y="508.8198">pesel: String</text><rect fill="none" height="6" style="stroke: #C82930; stroke-width: 1.0;" width="6" x="271" y="515.4141"/><text fill="#000000" font-family="sans-serif" font-size="11" lengthAdjust="spacingAndGlyphs" textLength="94" x="283" y="521.6245">firstname: String</text><rect fill="none" height="6" style="stroke: #C82930; stroke-width: 1.0;" width="6" x="271" y="528.2188"/><text fill="#000000" font-family="sans-serif" font-size="11" lengthAdjust="spacingAndGlyphs" textLength="90" x="283" y="534.4292">surname: String</text><rect fill="none" height="6" style="stroke: #C82930; stroke-width: 1.0;" width="6" x="271" y="541.0234"/><text fill="#000000" font-family="sans-serif" font-size="11" lengthAdjust="spacingAndGlyphs" textLength="129" x="283" y="547.2339">dateOfBirth: LocalDate</text><rect fill="none" height="6" style="stroke: #C82930; stroke-width: 1.0;" width="6" x="271" y="553.8281"/><text fill="#000000" font-family="sans-serif" font-size="11" lengthAdjust="spacingAndGlyphs" textLength="121" x="283" y="560.0386">phoneNumber: String</text><rect fill="none" height="6" style="stroke: #C82930; stroke-width: 1.0;" width="6" x="271" y="566.6328"/><text fill="#000000" font-family="sans-serif" font-size="11" lengthAdjust="spacingAndGlyphs" textLength="72" x="283" y="572.8433">email: String</text><line style="stroke: #A80036; stroke-width: 1.5;" x1="264" x2="313.5" y1="479.4023" y2="479.4023"/><text fill="#000000" font-family="sans-serif" font-size="11" lengthAdjust="spacingAndGlyphs" textLength="54" x="313.5" y="482.7104">attributes</text><line style="stroke: #A80036; stroke-width: 1.5;" x1="367.5" x2="417" y1="479.4023" y2="479.4023"/><!--MD5=[18f5b4ccae6e62f3670d3aa352beb4cd]
class Trip--><rect codeLine="64" fill="#FEFECE" filter="url(#ft3t6ub6id5tb)" height="184.8516" id="Trip" style="stroke: #A80036; stroke-width: 1.5;" width="176" x="252.5" y="7"/><ellipse cx="324.75" cy="23" fill="#ADD1B2" rx="11" ry="11" style="stroke: #A80036; stroke-width: 1.0;"/><path d="M327.0938,18.6719 C326.1563,18.2344 325.5625,18.0938 324.6875,18.0938 C322.0625,18.0938 320.0625,20.1719 320.0625,22.8906 L320.0625,24.0156 C320.0625,26.5938 322.1719,28.4844 325.0625,28.4844 C326.2813,28.4844 327.4375,28.1875 328.1875,27.6406 C328.7656,27.2344 329.0938,26.7813 329.0938,26.3906 C329.0938,25.9375 328.7031,25.5469 328.2344,25.5469 C328.0156,25.5469 327.8125,25.625 327.625,25.8125 C327.1719,26.2969 327.1719,26.2969 326.9844,26.3906 C326.5625,26.6563 325.875,26.7813 325.1094,26.7813 C323.0625,26.7813 321.7656,25.6875 321.7656,23.9844 L321.7656,22.8906 C321.7656,21.1094 323.0156,19.7969 324.75,19.7969 C325.3281,19.7969 325.9375,19.9531 326.4063,20.2031 C326.8906,20.4844 327.0625,20.7031 327.1563,21.1094 C327.2188,21.5156 327.25,21.6406 327.3906,21.7656 C327.5313,21.9063 327.7656,22.0156 327.9844,22.0156 C328.25,22.0156 328.5156,21.875 328.6875,21.6563 C328.7969,21.5 328.8281,21.3125 328.8281,20.8906 L328.8281,19.4688 C328.8281,19.0313 328.8125,18.9063 328.7188,18.75 C328.5625,18.4844 328.2813,18.3438 327.9844,18.3438 C327.6875,18.3438 327.4844,18.4375 327.2656,18.75 L327.0938,18.6719 Z "/><text fill="#000000" font-family="sans-serif" font-size="12" lengthAdjust="spacingAndGlyphs" textLength="23" x="345.25" y="27.1543">Trip</text><line style="stroke: #A80036; stroke-width: 1.5;" x1="253.5" x2="427.5" y1="39" y2="39"/><rect fill="none" height="6" style="stroke: #C82930; stroke-width: 1.0;" width="6" x="260.5" y="63.8047"/><text fill="#000000" font-family="sans-serif" font-size="11" lengthAdjust="spacingAndGlyphs" textLength="44" x="272.5" y="70.0151">id: Long</text><rect fill="none" height="6" style="stroke: #C82930; stroke-width: 1.0;" width="6" x="260.5" y="76.6094"/><text fill="#000000" font-family="sans-serif" font-size="11" lengthAdjust="spacingAndGlyphs" textLength="68" x="272.5" y="82.8198">code: String</text><rect fill="none" height="6" style="stroke: #C82930; stroke-width: 1.0;" width="6" x="260.5" y="89.4141"/><text fill="#000000" font-family="sans-serif" font-size="11" lengthAdjust="spacingAndGlyphs" textLength="115" x="272.5" y="95.6245">tickets: List&lt;Ticket&gt;</text><rect fill="none" height="6" style="stroke: #C82930; stroke-width: 1.0;" width="6" x="260.5" y="102.2188"/><text fill="#000000" font-family="sans-serif" font-size="11" lengthAdjust="spacingAndGlyphs" textLength="148" x="272.5" y="108.4292">departureDate: LocalDate</text><rect fill="none" height="6" style="stroke: #C82930; stroke-width: 1.0;" width="6" x="260.5" y="115.0234"/><text fill="#000000" font-family="sans-serif" font-size="11" lengthAdjust="spacingAndGlyphs" textLength="150" x="272.5" y="121.2339">departureTime: LocalTime</text><rect fill="none" height="6" style="stroke: #C82930; stroke-width: 1.0;" width="6" x="260.5" y="127.8281"/><text fill="#000000" font-family="sans-serif" font-size="11" lengthAdjust="spacingAndGlyphs" textLength="127" x="272.5" y="134.0386">arrivalDate: LocalDate</text><rect fill="none" height="6" style="stroke: #C82930; stroke-width: 1.0;" width="6" x="260.5" y="140.6328"/><text fill="#000000" font-family="sans-serif" font-size="11" lengthAdjust="spacingAndGlyphs" textLength="129" x="272.5" y="146.8433">arrivalTime: LocalTime</text><rect fill="none" height="6" style="stroke: #C82930; stroke-width: 1.0;" width="6" x="260.5" y="153.4375"/><text fill="#000000" font-family="sans-serif" font-size="11" lengthAdjust="spacingAndGlyphs" textLength="144" x="272.5" y="159.6479">purchaseDate: LocalDate</text><rect fill="none" height="6" style="stroke: #C82930; stroke-width: 1.0;" width="6" x="260.5" y="166.2422"/><text fill="#000000" font-family="sans-serif" font-size="11" lengthAdjust="spacingAndGlyphs" textLength="146" x="272.5" y="172.4526">purchaseTime: LocalTime</text><rect fill="none" height="6" style="stroke: #C82930; stroke-width: 1.0;" width="6" x="260.5" y="179.0469"/><text fill="#000000" font-family="sans-serif" font-size="11" lengthAdjust="spacingAndGlyphs" textLength="62" x="272.5" y="185.2573">price: Price</text><line style="stroke: #A80036; stroke-width: 1.5;" x1="253.5" x2="313.5" y1="53.4023" y2="53.4023"/><text fill="#000000" font-family="sans-serif" font-size="11" lengthAdjust="spacingAndGlyphs" textLength="54" x="313.5" y="56.7104">attributes</text><line style="stroke: #A80036; stroke-width: 1.5;" x1="367.5" x2="427.5" y1="53.4023" y2="53.4023"/><!--MD5=[7612e4efa207220985cd42a82a178091]
reverse link Connection to Airline--><path codeLine="78" d="M170.604,746.461 C180.699,770.17 192.171,797.116 201.665,819.414 " fill="none" id="Connection-backto-Airline" style="stroke: #A80036; stroke-width: 1.0;"/><polygon fill="#FFFFFF" points="165.468,734.399,164.1382,741.4864,170.1689,745.4399,171.4988,738.3525,165.468,734.399" style="stroke: #A80036; stroke-width: 1.0;"/><!--MD5=[ee83995ff5bec5cbe39ca03d899d51e7]
reverse link Connection to Airport--><path codeLine="79" d="M120.285,746.723 C113.861,761.81 106.8855,778.193 100.2204,793.847 " fill="none" id="Connection-backto-Airport" style="stroke: #A80036; stroke-width: 1.0;"/><polygon fill="#FFFFFF" points="125.532,734.399,119.5012,738.3525,120.8311,745.4399,126.8618,741.4864,125.532,734.399" style="stroke: #A80036; stroke-width: 1.0;"/><!--MD5=[906c48e0314528493c40756d8d41f784]
link Times to Flight--><path codeLine="80" d="M142.479,360.346 C142.852,378.24 143.291,399.249 143.717,419.624 " fill="none" id="Times-to-Flight" style="stroke: #A80036; stroke-width: 1.0;"/><polygon fill="#A80036" points="143.994,432.882,147.8679,426.7998,143.7435,420.8846,139.8696,426.9668,143.994,432.882" style="stroke: #A80036; stroke-width: 1.0;"/><!--MD5=[b24544e0dd3455f6a21b29fc616bf4df]
reverse link Flight to Connection--><path codeLine="81" d="M145.5,592.424 C145.5,608.4 145.5,624.54 145.5,638.791 " fill="none" id="Flight-backto-Connection" style="stroke: #A80036; stroke-width: 1.0;"/><polygon fill="#FFFFFF" points="145.5,579.088,141.5,585.088,145.5,591.088,149.5,585.088,145.5,579.088" style="stroke: #A80036; stroke-width: 1.0;"/><!--MD5=[ca5f516dac2e3843abf0c9a310e06bfc]
reverse link Ticket to Passenger--><path codeLine="82" d="M340.5,386.175 C340.5,401.41 340.5,417.474 340.5,432.696 " fill="none" id="Ticket-backto-Passenger" style="stroke: #A80036; stroke-width: 1.0;"/><polygon fill="#FFFFFF" points="340.5,373.042,336.5,379.042,340.5,385.042,344.5,379.042,340.5,373.042" style="stroke: #A80036; stroke-width: 1.0;"/><!--MD5=[7f1cb68d450bbc66d3dc7e285fd370f3]
reverse link Ticket to Flight--><path codeLine="83" d="M270.24,382.499 C253.632,398.809 235.878,416.244 219.126,432.696 " fill="none" id="Ticket-backto-Flight" style="stroke: #A80036; stroke-width: 1.0;"/><polygon fill="#FFFFFF" points="279.87,373.042,272.7865,374.3924,271.3086,381.4504,278.3921,380.1,279.87,373.042" style="stroke: #A80036; stroke-width: 1.0;"/><!--MD5=[fdd60aa9cee27aeb7a40e9d8ad846747]
reverse link Trip to Ticket--><path codeLine="84" d="M340.5,205.478 C340.5,221.415 340.5,237.367 340.5,251.881 " fill="none" id="Trip-backto-Ticket" style="stroke: #A80036; stroke-width: 1.0;"/><polygon fill="#A80036" points="340.5,192.127,336.5,198.127,340.5,204.127,344.5,198.127,340.5,192.127" style="stroke: #A80036; stroke-width: 1.0;"/><!--MD5=[3972a7c4c08cbb363f003db8120ac9b3]
@startuml
class Airport {
  __ attributes __
  - id: Long
  - name: String
  - city: String
  - country: String
  - longitude: double
  - latitude: double
  - timezone: int
}

class Airline {
  __ attributes __
  - id: Long
  - name: String
  - country: String
}

class Connection {
  __ attributes __
  - id: Long
  - srcAirport: Airport
  - dstAirport: Airport
}

class Flight {
  __ attributes __
  - id: Long
  - connection: Connection
  - airline: Airline
  - numberSeats: int
  - availableSeats: int
  - price: double
  - times: Times
}

class Times {
  __ attributes __
  - departureDate: LocalDate
  - departureTime: LocalTime
  - flightTime: LocalTime
}

class Ticket {
  __ attributes __
  - id: Long
  - passenger: Passenger
  - flight: Flight
  - seatNumber: Integer
  - price: double
}

class Passenger {
  __ attributes __
  -id: Long
  -pesel: String
  -firstname: String
  -surname: String
  -dateOfBirth: LocalDate
  -phoneNumber: String
  -email: String
}

class Trip {
  __ attributes __
  - id: Long
  - code: String
  - tickets: List<Ticket>
  - departureDate: LocalDate
  - departureTime: LocalTime
  - arrivalDate: LocalDate
  - arrivalTime: LocalTime
  - purchaseDate: LocalDate
  - purchaseTime: LocalTime
  - price: Price
}

Connection o- - Airline
Connection o- - Airport
Times - -* Flight
Flight o- - Connection
Ticket o- - Passenger
Ticket o- - Flight
Trip *- - Ticket
@enduml

PlantUML version 1.2020.17beta5(Unknown compile time)
(GPL source distribution)
Java Runtime: Java(TM) SE Runtime Environment
JVM: Java HotSpot(TM) 64-Bit Server VM
Default Encoding: UTF-8
Language: en
Country: US
--></g></svg>